<svg version="1.1" id="Layer_1" xmlns="http://www.w3.org/2000/svg" xmlns:xlink="http://www.w3.org/1999/xlink" x="0px" y="0px"
	 width="100%" viewBox="0 0 1807 794" enable-background="new 0 0 1807 794" xml:space="preserve">
<path fill="#FFFFFF" opacity="1.000000" stroke="none" 
	d="
M1365.000000,795.000000 
	C910.000000,795.000000 455.500000,795.000000 1.000000,795.000000 
	C1.000000,530.333313 1.000000,265.666656 1.000000,1.000000 
	C603.333313,1.000000 1205.666626,1.000000 1808.000000,1.000000 
	C1808.000000,265.666656 1808.000000,530.333313 1808.000000,795.000000 
	C1660.500000,795.000000 1513.000000,795.000000 1365.000000,795.000000 
M261.000061,311.496094 
	C261.998871,322.898071 262.308868,334.414185 264.174347,345.672546 
	C266.406403,359.143188 269.537170,372.508423 273.058411,385.711334 
	C277.848785,403.673096 285.597198,420.430542 294.806091,436.615387 
	C303.188324,451.347290 312.837982,465.156158 324.281708,477.505219 
	C333.687897,487.655548 344.112946,496.931702 354.620514,505.974701 
	C369.832550,519.066467 387.020905,529.155090 405.178345,537.707336 
	C425.636475,547.343201 446.752197,554.830322 469.198944,557.975769 
	C483.552948,559.987122 497.971436,562.315918 512.410278,562.713928 
	C525.452820,563.073425 538.571289,561.107239 551.639954,559.977722 
	C567.000488,558.650146 581.815491,554.704773 596.484680,550.164062 
	C613.908325,544.770813 630.379822,537.189209 646.048462,527.932922 
	C661.740540,518.662720 676.378357,507.863739 689.333374,495.024200 
	C697.758728,486.674042 705.551270,477.681915 713.560730,468.916595 
	C725.287659,456.082977 734.558655,441.478882 742.785828,426.306396 
	C751.063171,411.041412 757.363342,394.895264 762.138184,378.105072 
	C767.053589,360.820740 769.754822,343.202911 770.808594,325.399078 
	C771.490723,313.873749 770.730835,302.210541 769.885376,290.662689 
	C769.101990,279.962463 767.471680,269.316040 765.994019,258.676483 
	C762.418640,232.933517 753.748657,208.909943 741.571533,186.016708 
	C732.779053,169.486725 722.140137,154.173782 709.665100,140.395187 
	C693.905457,122.988724 676.634277,107.018951 656.900818,94.036758 
	C635.724670,80.105530 612.992737,69.449654 588.740051,61.968433 
	C571.791565,56.740326 554.446228,53.070675 536.852417,52.275482 
	C519.571960,51.494450 502.099121,50.607517 484.873199,53.998005 
	C472.984314,56.338039 460.966461,58.165283 449.231812,61.118179 
	C420.769989,68.280281 394.454559,80.428123 370.224792,96.984749 
	C355.697296,106.911621 342.115570,118.017609 330.376831,131.188858 
	C322.224762,140.335739 313.604645,149.204300 306.538483,159.152451 
	C289.553192,183.065384 276.858978,209.273056 269.237946,237.641937 
	C264.253082,256.197876 260.826172,275.125488 260.993042,294.502167 
	C261.038940,299.833618 261.000000,305.165771 261.000061,311.496094 
M1152.041382,377.384094 
	C1172.036743,417.009094 1191.983032,456.658966 1212.048462,496.248474 
	C1221.846924,515.580994 1232.071045,534.713440 1237.438965,555.850281 
	C1253.277588,555.850281 1268.869629,555.850281 1285.013550,555.850281 
	C1283.497192,553.521057 1282.367188,551.428223 1280.907593,549.598328 
	C1267.411133,532.677429 1258.937378,512.854065 1249.112549,493.874023 
	C1228.445312,453.947876 1208.398560,413.699799 1188.187012,373.538727 
	C1173.814209,344.979248 1159.484985,316.396210 1145.471313,287.660400 
	C1144.205200,285.063904 1144.280273,280.672333 1145.637939,278.133362 
	C1151.770020,266.666077 1158.575439,255.558105 1165.162354,244.334915 
	C1172.326660,232.128143 1179.547729,219.954605 1186.688721,207.734222 
	C1194.550781,194.280075 1202.322876,180.773315 1210.184448,167.318878 
	C1217.325317,155.098160 1224.563110,142.934189 1231.704346,130.713760 
	C1239.566406,117.259804 1247.374146,103.774071 1255.191895,90.294357 
	C1261.150879,80.019592 1267.088501,69.732414 1273.101318,59.337208 
	C1264.347778,57.032284 1260.575806,57.540718 1258.025757,61.815540 
	C1249.949707,75.353783 1242.005737,88.971352 1234.077271,102.597054 
	C1225.431030,117.456345 1216.885010,132.373856 1208.248291,147.238663 
	C1199.522339,162.257095 1190.741211,177.243530 1181.979248,192.241028 
	C1174.347046,205.305023 1166.700684,218.360687 1159.073730,231.427734 
	C1149.359497,248.071045 1139.685181,264.737732 1129.942627,281.364532 
	C1123.231689,292.817719 1116.433960,304.220245 1108.997925,316.790039 
	C1108.997925,313.689606 1108.998047,311.930817 1108.998047,310.172028 
	C1108.998291,229.343781 1108.998535,148.515518 1108.998535,67.687271 
	C1108.998657,66.520676 1109.092529,65.344864 1108.980103,64.189171 
	C1108.590210,60.180309 1107.014160,57.804298 1102.304199,57.917896 
	C1091.477783,58.179020 1080.640869,57.993816 1069.808228,58.009289 
	C1068.578247,58.011044 1067.348389,58.137547 1066.281494,58.197109 
	C1067.946289,63.143021 1069.794312,67.603317 1070.937866,72.237442 
	C1073.606689,83.051422 1073.123047,94.075165 1073.110718,105.140862 
	C1072.946777,252.798157 1073.000366,400.455688 1072.999878,548.113159 
	C1072.999878,548.613098 1073.044189,549.117676 1072.993164,549.612305 
	C1072.528687,554.120911 1075.218750,556.664673 1079.064575,556.826599 
	C1088.659546,557.230591 1098.282959,556.959717 1108.996094,556.959717 
	C1108.996094,549.167542 1109.029907,541.921997 1108.990967,534.676819 
	C1108.668335,474.592133 1108.430298,414.506653 1107.926880,354.423431 
	C1107.809692,340.448395 1115.411133,329.983978 1122.082520,318.654175 
	C1132.190918,338.266602 1142.074829,357.443390 1152.041382,377.384094 
M29.003519,555.074036 
	C30.536564,555.715942 32.057446,556.876526 33.604683,556.912781 
	C41.599121,557.100342 49.614307,556.716980 57.593655,557.111389 
	C62.039654,557.331177 64.181999,555.652649 64.788040,551.539368 
	C65.004143,550.072571 64.991776,548.564026 64.992035,547.074585 
	C65.003632,479.751038 65.002792,412.427521 65.020920,345.103973 
	C65.021362,343.463440 64.695862,341.535706 65.412239,340.230194 
	C69.383904,332.992340 73.631325,325.905823 77.991356,318.411621 
	C84.934090,331.885651 91.632133,344.674683 98.139786,357.559937 
	C110.152412,381.345154 122.066582,405.180145 133.996124,429.007233 
	C141.835281,444.664459 149.650818,460.333557 157.438248,476.016571 
	C166.317856,493.899139 175.377792,511.697418 183.911713,529.744080 
	C187.924530,538.229919 190.889526,547.211243 194.302094,555.898682 
	C209.918167,555.898682 225.201233,555.898682 240.818710,555.898682 
	C240.242905,554.714844 239.918015,553.627747 239.273849,552.784363 
	C225.935501,535.321472 216.054901,515.791504 206.151016,496.351074 
	C181.206329,447.386749 156.669266,398.214569 132.024338,349.097839 
	C122.249924,329.617706 113.006660,309.857788 102.711906,290.659424 
	C99.274780,284.249664 100.234619,279.462219 103.467422,274.006195 
	C115.506920,253.687012 127.505348,233.343475 139.497192,212.996109 
	C147.088882,200.114746 154.675735,187.230286 162.202835,174.311157 
	C170.848480,159.472244 179.403595,144.580612 188.039276,129.735870 
	C195.648422,116.655731 203.320480,103.612198 210.953293,90.545807 
	C216.995804,80.201820 223.020950,69.847694 229.139008,59.351910 
	C218.941437,56.600193 216.193893,57.673241 211.944717,65.170204 
	C204.327438,78.609558 196.714417,92.053558 188.896667,105.376541 
	C177.013367,125.628006 164.843246,145.711487 153.005127,165.989044 
	C140.516693,187.380478 128.368378,208.970383 115.900009,230.373672 
	C102.375084,253.590668 88.655464,276.694275 75.013855,299.843231 
	C71.659477,305.535400 68.278358,311.211761 64.909546,316.895416 
	C64.539665,316.740448 64.169777,316.585510 63.799896,316.430542 
	C63.799896,230.703690 63.799896,144.976837 63.799896,59.125893 
	C49.798130,59.125893 36.160904,59.125893 22.203455,59.125893 
	C28.819986,71.966743 29.058777,85.755188 29.051207,99.698097 
	C28.968962,251.176041 28.999538,402.654022 29.003519,555.074036 
M1369.000244,175.500000 
	C1369.000244,162.170151 1369.000366,148.840302 1369.000244,135.510452 
	C1369.000244,112.515076 1369.005127,89.519699 1368.996582,66.524323 
	C1368.994141,59.708786 1367.346558,58.023129 1360.766602,58.011971 
	C1357.600586,58.006603 1354.434570,58.000504 1351.268555,57.999828 
	C1343.212158,57.998108 1335.155762,57.999256 1325.986084,57.999256 
	C1333.074219,71.744095 1333.867676,85.795952 1333.884766,99.709656 
	C1334.068970,250.179184 1334.019409,400.649017 1333.907959,551.118713 
	C1333.904541,555.716431 1335.447388,557.175903 1339.813232,557.056580 
	C1347.306152,556.851746 1354.818848,556.762756 1362.303589,557.084167 
	C1367.420898,557.303894 1369.096802,555.767883 1369.085327,550.149536 
	C1368.949219,483.330170 1369.139160,416.509796 1368.861572,349.691315 
	C1368.809082,337.077545 1376.990967,328.912109 1382.232300,318.500549 
	C1383.813477,321.347870 1385.053101,323.407593 1386.132080,325.548309 
	C1415.971436,384.747070 1445.750000,443.976440 1475.650146,503.144501 
	C1483.345337,518.372314 1491.251587,533.549133 1495.384277,550.170776 
	C1496.843628,556.040527 1499.571167,557.195312 1504.800537,557.079163 
	C1516.292603,556.823853 1527.794800,557.054810 1539.291504,556.948730 
	C1541.228638,556.930908 1543.159546,556.219421 1545.086304,555.829895 
	C1537.889526,544.717834 1530.258057,534.618958 1524.413208,523.574524 
	C1510.490845,497.266357 1497.371460,470.532166 1484.005127,443.931152 
	C1469.794678,415.650269 1455.729492,387.296356 1441.495972,359.027161 
	C1429.841675,335.880432 1418.038940,312.808289 1406.288330,289.710052 
	C1404.056396,285.322388 1403.570312,281.499908 1406.536133,276.723358 
	C1415.088501,262.950287 1422.920532,248.730347 1431.047485,234.692947 
	C1442.164551,215.491165 1453.234985,196.262009 1464.432739,177.107361 
	C1475.230225,158.637482 1486.210815,140.274750 1497.025513,121.814842 
	C1509.108276,101.190453 1521.094971,80.509697 1533.138916,59.826984 
	C1525.302979,56.445137 1520.728027,57.578209 1517.795776,62.644947 
	C1508.456543,78.782677 1498.928711,94.811119 1489.551636,110.927177 
	C1481.781860,124.280678 1474.189331,137.737335 1466.397583,151.077850 
	C1456.923828,167.297897 1447.260986,183.407471 1437.795410,199.632278 
	C1427.654053,217.015244 1417.710327,234.513626 1407.563354,251.893250 
	C1397.514526,269.104248 1387.323120,286.232117 1377.185791,303.391449 
	C1374.725708,307.555573 1372.232666,311.700195 1369.754761,315.853790 
	C1369.503174,315.713623 1369.251709,315.573425 1369.000244,315.433258 
	C1369.000244,269.122162 1369.000244,222.811081 1369.000244,175.500000 
M1701.000122,117.428482 
	C1698.504395,103.930397 1696.532715,90.307053 1693.345459,76.974281 
	C1690.844727,66.513351 1683.601440,59.944805 1672.519165,59.079811 
	C1662.972046,58.334621 1653.369019,58.248505 1643.787109,58.028458 
	C1637.752441,57.889877 1636.807739,59.160976 1638.590698,65.107841 
	C1641.475220,74.728691 1641.798584,84.610405 1640.657104,94.378021 
	C1639.362793,105.452873 1636.929688,116.394325 1635.002197,127.395576 
	C1632.795898,139.987823 1630.629761,152.587204 1628.392578,165.173935 
	C1626.298340,176.956909 1624.087891,188.719330 1622.012939,200.505630 
	C1619.823608,212.942764 1617.795166,225.408371 1615.584351,237.841583 
	C1613.122314,251.686447 1610.467651,265.497070 1608.019165,279.344238 
	C1605.539673,293.367157 1603.303589,307.433411 1600.787842,321.449585 
	C1598.304688,335.284393 1595.499512,349.061523 1593.030029,362.898682 
	C1590.499756,377.076538 1588.309448,391.315063 1585.779663,405.492981 
	C1582.966675,421.257446 1579.815063,436.961792 1577.038086,452.732361 
	C1574.202271,468.837280 1571.793701,485.017792 1568.921509,501.115875 
	C1565.690796,519.224548 1562.150513,537.278015 1558.731812,555.425293 
	C1560.036011,555.851501 1560.928467,556.146912 1561.823486,556.434937 
	C1567.724976,558.334778 1569.917603,557.364014 1571.200317,551.315002 
	C1573.044922,542.614807 1574.479858,533.825562 1575.990112,525.057129 
	C1579.039917,507.351013 1581.938477,489.618469 1585.071899,471.927368 
	C1586.441040,464.197479 1586.909546,464.001587 1594.508667,464.001648 
	C1631.173584,464.001923 1667.838379,464.001831 1704.503296,464.001709 
	C1711.336304,464.001678 1718.187988,463.726685 1724.989502,464.188904 
	C1726.739746,464.307861 1729.302734,466.457153 1729.814941,468.174164 
	C1731.327515,473.243896 1732.002197,478.563812 1733.000610,483.786621 
	C1735.277100,495.695679 1737.807007,507.563904 1739.736206,519.528992 
	C1741.020630,527.494629 1743.578735,535.432190 1741.080811,543.725708 
	C1739.916992,547.589722 1739.604126,551.710083 1738.910278,555.687256 
	C1755.061768,555.687256 1770.447754,555.687256 1786.447510,555.687256 
	C1776.984985,534.164917 1774.710083,511.381134 1770.053955,489.175690 
	C1767.501953,477.004883 1765.477295,464.723633 1763.203857,452.494232 
	C1760.809937,439.617676 1758.341309,426.754639 1756.017822,413.865417 
	C1753.234619,398.426270 1750.664185,382.948486 1747.828247,367.519318 
	C1744.996826,352.113464 1741.864746,336.762939 1739.022461,321.358978 
	C1735.911865,304.501648 1733.073120,287.594055 1729.947876,270.739502 
	C1726.736450,253.420654 1723.333130,236.137314 1719.993164,218.842438 
	C1717.695435,206.945572 1715.255005,195.075165 1713.075928,183.156845 
	C1710.921387,171.372803 1709.136230,159.521042 1706.962158,147.740845 
	C1705.145996,137.900253 1703.002075,128.120178 1701.000122,117.428482 
M822.995483,170.459717 
	C825.933777,179.462753 828.925110,188.448868 831.800171,197.472046 
	C840.031860,223.306625 848.146729,249.178635 856.438049,274.993988 
	C865.800781,304.145294 875.207886,333.283173 884.789917,362.362885 
	C889.558777,376.835754 892.453857,391.318329 892.238342,406.830811 
	C891.585510,453.813751 892.004211,500.811615 892.005188,547.803650 
	C892.005249,548.803467 891.868958,549.824768 892.025208,550.799377 
	C892.623291,554.530945 894.072449,557.176025 898.625671,557.045532 
	C905.951599,556.835571 913.288147,556.999084 920.620239,557.001221 
	C927.995178,557.003357 927.998962,557.001465 927.999146,549.692078 
	C928.000305,496.367737 927.959961,443.043304 928.083923,389.719238 
	C928.092773,385.908295 928.899414,381.977936 930.017151,378.310944 
	C936.056091,358.499329 942.229065,338.727448 948.511230,318.991364 
	C955.908508,295.752106 963.517395,272.580322 970.936340,249.347916 
	C977.911621,227.505035 984.751953,205.619049 991.665283,183.756348 
	C998.771667,161.283478 1005.865173,138.806473 1013.018982,116.348648 
	C1019.051697,97.410187 1025.162598,78.496643 1031.236206,59.580544 
	C1022.169739,56.530849 1020.225342,57.566166 1017.888428,65.784798 
	C1014.425720,77.963211 1010.346069,89.966949 1006.491211,102.032974 
	C999.118530,125.110390 991.690063,148.169998 984.339294,171.254395 
	C977.187317,193.714157 970.186951,216.222488 962.966125,238.659958 
	C956.083984,260.044922 948.866821,281.322540 942.048828,302.727570 
	C935.477051,323.359802 929.227295,344.094635 922.707336,365.201141 
	C921.862915,364.287811 921.360352,363.985260 921.227234,363.565552 
	C913.366272,338.785797 905.584473,313.980865 897.686340,289.213013 
	C891.689758,270.408112 885.543457,251.650940 879.473389,232.869415 
	C870.990356,206.621841 862.478882,180.383377 854.050415,154.118317 
	C847.238464,132.890884 840.294739,111.700432 833.923462,90.340240 
	C832.048340,84.053825 831.508362,77.266457 831.163452,70.666512 
	C830.969910,66.963341 832.427612,63.173878 833.188232,59.177101 
	C816.922974,59.177101 801.202637,59.177101 785.282654,59.177101 
	C788.589661,67.618896 792.177917,75.718185 794.964233,84.084557 
	C804.444031,112.549057 813.640930,141.107773 822.995483,170.459717 
M648.969971,778.554932 
	C653.648376,774.712708 658.326782,770.870544 663.144348,766.914062 
	C662.936951,770.025452 662.291382,773.586548 662.622559,777.054260 
	C662.818787,779.108704 664.159119,782.282471 665.674194,782.758301 
	C670.774597,784.360291 674.898621,782.584595 674.929749,779.317627 
	C675.079407,763.653687 675.055359,747.986572 674.836121,732.324158 
	C674.820374,731.202087 672.760437,729.160767 671.629028,729.145203 
	C656.185303,728.932678 640.737610,729.002136 625.000488,729.002136 
	C625.000488,730.446533 625.007446,731.419434 624.999390,732.392151 
	C624.927979,740.999023 624.927185,740.999329 633.506165,740.999634 
	C642.293518,741.000000 651.080811,740.999695 660.285156,740.999695 
	C659.470703,744.161682 658.920898,746.823120 658.098511,749.397583 
	C654.610229,760.317139 646.637146,766.243896 636.042908,769.549927 
	C620.331421,774.452759 597.250671,767.138794 590.672546,749.142151 
	C587.400879,740.191223 586.185974,731.117615 587.829407,721.398621 
	C590.490234,705.663391 598.542908,695.155457 613.933411,690.532410 
	C630.023132,685.699280 650.540222,691.535522 657.480164,708.002747 
	C660.976257,705.998779 664.414795,703.922607 667.954773,702.036865 
	C670.229736,700.824890 670.956482,699.384460 668.943909,697.491394 
	C663.049011,691.946472 657.799683,685.223938 650.960388,681.283386 
	C639.085266,674.441589 625.851501,673.874695 612.334351,676.902893 
	C597.518066,680.222107 585.886536,687.394775 578.972900,701.302917 
	C571.659302,716.015686 571.548401,731.444153 574.595520,747.099182 
	C576.908142,758.980469 583.441772,768.406860 593.424622,774.969788 
	C610.855591,786.429077 629.339172,787.559814 648.969971,778.554932 
M251.438522,693.040894 
	C248.961777,697.171753 245.964676,701.083313 244.112686,705.477478 
	C239.771835,715.777100 238.280258,726.404846 239.799515,737.768799 
	C241.404556,749.774475 245.416306,760.595886 253.757599,768.998718 
	C268.552338,783.902649 286.782593,787.498352 306.953186,782.572693 
	C321.779633,778.952026 333.155884,770.582764 339.524261,756.801697 
	C345.464661,743.946899 346.705933,729.972778 343.848541,716.119568 
	C338.413300,689.768066 319.912964,677.691833 295.772797,675.210327 
	C278.663757,673.451477 263.835144,679.849365 251.438522,693.040894 
M442.941498,720.345520 
	C442.960693,727.330566 442.305695,734.397400 443.140442,741.283569 
	C444.840607,755.309143 451.903015,766.587769 463.203339,774.999512 
	C473.765045,782.861450 485.961761,784.316284 498.814514,784.120361 
	C519.309326,783.807983 537.284851,770.780518 544.086731,751.229187 
	C547.421509,741.643494 547.278748,731.848755 546.916809,722.044495 
	C546.500427,710.766174 542.414734,700.651733 534.749268,692.345398 
	C522.611450,679.192749 507.491852,674.354675 489.649109,675.839417 
	C474.945801,677.062988 462.874146,682.639038 453.653961,693.959167 
	C447.664062,701.313232 443.997009,709.882568 442.941498,720.345520 
M1039.000000,750.519897 
	C1039.000000,747.688232 1039.166626,744.844421 1038.962036,742.027588 
	C1038.632324,737.485535 1040.599609,735.875061 1045.084961,735.935669 
	C1058.408203,736.115479 1071.736938,736.113098 1085.060303,735.937988 
	C1089.649536,735.877686 1091.135376,737.746155 1091.065308,742.170654 
	C1090.875366,754.160767 1090.983887,766.155884 1091.023926,778.148865 
	C1091.028198,779.409363 1091.192383,781.704651 1091.573975,781.768127 
	C1095.273193,782.384155 1099.048828,782.920837 1102.767822,782.745056 
	C1103.591309,782.706116 1104.566162,779.839233 1104.959595,778.154907 
	C1105.545288,775.647156 1105.951050,773.033813 1105.957642,770.464111 
	C1106.026489,743.646362 1106.051025,716.828247 1105.948730,690.010681 
	C1105.932251,685.672058 1105.235474,681.336060 1104.865845,677.142334 
	C1102.028076,677.000122 1099.661499,677.148621 1097.407837,676.712585 
	C1092.826050,675.826111 1091.024658,677.014343 1091.011597,681.541748 
	C1090.977295,693.368164 1090.869629,705.196960 1091.066040,717.020203 
	C1091.142090,721.602905 1089.317383,723.125122 1084.873047,723.063782 
	C1071.882935,722.884399 1058.884521,722.801697 1045.898438,723.092712 
	C1040.315186,723.217773 1038.802124,721.232361 1038.907471,716.262939 
	C1039.182129,703.319885 1039.000000,690.367188 1039.000000,677.210938 
	C1033.871826,677.210938 1029.138062,677.210938 1024.000488,677.210938 
	C1024.000488,688.023254 1024.000366,698.639282 1024.000366,709.255310 
	C1024.000122,731.242676 1024.006592,753.229980 1023.993286,775.217346 
	C1023.991028,778.903809 1024.748901,782.301208 1028.991699,782.907654 
	C1032.195190,783.365479 1035.516479,782.998230 1039.000000,782.998230 
	C1039.000000,772.122437 1039.000000,761.818298 1039.000000,750.519897 
M748.961426,752.655823 
	C754.010254,761.602539 758.969421,770.602234 764.193420,779.445496 
	C765.094971,780.971741 767.030273,782.669006 768.643555,782.842651 
	C773.005005,783.312195 777.450378,783.003479 783.204895,783.003479 
	C773.147949,766.423462 763.719604,750.879700 754.328857,735.397888 
	C756.432129,734.297791 758.323303,732.856079 760.448669,732.282898 
	C766.503906,730.650085 770.014099,726.196533 772.916443,721.260498 
	C779.203552,710.567993 777.611023,699.828796 771.999084,689.498474 
	C768.784912,683.581909 763.648621,678.546021 756.958679,678.235596 
	C741.145752,677.501709 725.275696,677.999878 709.000122,677.999878 
	C709.000122,679.006592 709.000122,680.626343 709.000122,682.246155 
	C709.000183,712.904053 708.981628,743.562012 709.010925,774.219910 
	C709.020386,784.107727 707.804199,782.718018 717.772949,783.097290 
	C722.083496,783.261230 723.173401,781.799988 723.084656,777.698669 
	C722.839478,766.373901 722.847168,755.036621 723.117065,743.713013 
	C723.177551,741.177124 723.987915,737.396667 725.719421,736.408569 
	C730.235413,733.831604 738.645325,733.742615 742.018433,740.781006 
	C743.885193,744.676147 746.340027,748.289490 748.961426,752.655823 
M173.498352,736.000000 
	C178.497330,736.000366 183.496368,735.988403 188.495285,736.005676 
	C191.577301,736.016296 193.132370,737.156128 193.073151,740.676819 
	C192.879776,752.171021 193.137207,763.672852 192.929459,775.166565 
	C192.852554,779.421448 193.100647,781.888306 198.567276,782.546997 
	C204.610550,783.275085 208.037460,781.899414 208.026184,775.675598 
	C207.969086,744.182800 207.960861,712.689636 208.057724,681.197021 
	C208.068039,677.845337 206.837112,676.646667 203.653351,676.977478 
	C202.675720,677.079041 201.640503,677.050354 200.682251,676.845032 
	C194.948868,675.616760 193.023102,677.087219 193.008499,682.933044 
	C192.979767,694.430420 192.781754,705.934082 193.108688,717.422180 
	C193.238174,721.971985 191.389572,723.068054 187.394531,723.038269 
	C173.898315,722.937683 160.399277,722.881531 146.904800,723.064819 
	C142.259033,723.127869 140.869614,721.167297 140.938202,716.790466 
	C141.120926,705.129272 141.030716,693.463196 140.959702,681.799561 
	C140.951202,680.404358 140.552521,677.870667 140.060669,677.800964 
	C136.349457,677.275818 132.430435,676.594849 128.881668,677.366638 
	C127.513245,677.664246 126.120880,681.610535 126.132629,683.887268 
	C126.210449,698.973328 126.798965,714.056091 126.963196,729.142761 
	C127.130051,744.470825 127.000771,759.802124 126.999733,775.132019 
	C126.999161,783.708740 126.046043,782.972229 135.201309,782.999878 
	C135.534576,783.000854 135.867905,782.995178 136.201080,783.000427 
	C139.523544,783.052795 141.153549,781.900696 141.083252,778.097717 
	C140.858459,765.937927 141.080154,753.770508 140.954346,741.607910 
	C140.912994,737.609314 142.436722,735.890015 146.505569,735.956665 
	C155.167953,736.098633 163.834305,736.000061 173.498352,736.000000 
M816.995911,735.535706 
	C811.291504,751.174988 805.587036,766.814209 799.683350,782.999817 
	C803.495789,782.999817 806.809509,782.707947 810.048828,783.074280 
	C814.025024,783.523987 815.780396,781.270752 816.933777,778.193176 
	C818.730835,773.397827 820.580566,768.596130 821.925903,763.665588 
	C823.077820,759.444336 825.564880,757.934021 829.707031,757.966919 
	C841.359009,758.059448 853.018250,758.216125 864.661865,757.890686 
	C869.192078,757.764038 871.326599,760.103638 872.784424,763.558838 
	C874.397644,767.382202 875.764160,771.328369 876.962280,775.304199 
	C879.327026,783.151245 885.628906,785.365234 894.088684,781.030029 
	C893.307129,778.454651 892.643616,775.800598 891.705261,773.247559 
	C881.162476,744.561646 870.510681,715.915588 860.041382,687.203003 
	C856.586792,677.728760 849.920288,673.760193 841.579041,677.100342 
	C839.805115,677.810730 837.832703,679.487854 837.144714,681.199280 
	C833.862000,689.365784 831.045471,697.718140 827.958374,705.965210 
	C824.361877,715.573120 820.656616,725.140381 816.995911,735.535706 
M932.511597,782.999939 
	C933.942078,782.919495 935.372559,782.838989 936.999939,782.747437 
	C936.999939,772.434448 937.000000,762.466370 936.999878,752.498291 
	C936.999695,742.001465 937.002991,742.164307 947.540161,741.948547 
	C955.930420,741.776733 964.670044,742.502380 972.613831,740.403870 
	C985.162598,737.088928 991.870850,728.008728 994.285950,714.705505 
	C997.732300,695.722473 984.832397,678.286987 965.709778,677.998230 
	C964.714600,677.983154 963.718506,677.964478 962.724976,677.909363 
	C949.603394,677.180359 936.482178,676.444519 922.005798,675.634521 
	C922.005798,683.609253 922.006165,690.809448 922.005737,698.009644 
	C922.004150,723.147583 922.184692,748.287659 921.892212,773.422180 
	C921.801331,781.231201 923.839966,783.785706 932.511597,782.999939 
M24.000183,742.500000 
	C24.000151,753.821350 23.810104,765.148560 24.163321,776.458862 
	C24.232464,778.672913 26.009470,782.232178 27.692135,782.705322 
	C31.168135,783.682800 35.111080,782.999756 38.999825,782.999756 
	C38.999825,781.014587 39.038013,779.693481 38.993721,778.375122 
	C38.671757,768.792419 38.210133,759.212341 38.041721,749.627136 
	C37.923210,742.881714 38.970913,742.001038 45.591366,742.000305 
	C52.417461,741.999573 59.255405,742.253479 66.066612,741.934998 
	C74.346138,741.547729 81.884590,738.969910 87.755035,732.731567 
	C94.842506,725.199951 96.193710,715.989319 96.085838,706.076477 
	C95.925674,691.358032 82.480309,676.338867 66.919601,676.944153 
	C58.773907,677.260986 50.605747,677.000061 42.447731,677.000061 
	C36.357491,677.000061 30.267250,677.000061 24.000183,677.000061 
	C24.000183,698.913452 24.000183,720.206726 24.000183,742.500000 
M1180.999878,743.571289 
	C1182.054565,738.219421 1181.990845,732.287292 1184.402588,727.639648 
	C1189.052612,718.679016 1195.164062,710.483582 1200.552002,701.897034 
	C1205.560547,693.915161 1210.416016,685.837158 1215.849976,676.967102 
	C1212.528564,676.967102 1210.010620,677.610840 1208.039917,676.845520 
	C1202.302124,674.617188 1198.815308,677.771484 1196.154907,681.726624 
	C1192.401978,687.305664 1189.455200,693.419312 1185.947632,699.172668 
	C1182.061279,705.547363 1177.931641,711.773743 1173.667725,718.440369 
	C1165.780884,705.314453 1158.428711,692.862854 1150.778198,680.597412 
	C1149.733765,678.922852 1147.296509,677.402161 1145.337524,677.160400 
	C1141.125610,676.640564 1136.805176,677.000793 1132.230591,677.000793 
	C1132.905884,678.644226 1133.265869,680.071594 1134.013306,681.254089 
	C1141.145996,692.537598 1147.923950,704.077759 1155.639038,714.951538 
	C1163.661133,726.257996 1167.884155,738.299561 1167.075073,752.218445 
	C1166.650513,759.522827 1167.000122,766.872314 1167.000244,774.201416 
	C1167.000488,783.582153 1169.106934,785.127319 1178.183105,782.408997 
	C1179.068237,782.143860 1179.958496,781.896240 1180.999878,781.596313 
	C1180.999878,769.174866 1180.999878,756.863831 1180.999878,743.571289 
M400.998840,744.500000 
	C400.999146,728.014954 401.113342,711.528625 400.916901,695.045898 
	C400.869843,691.098511 402.002502,689.755432 406.012360,689.917053 
	C413.264709,690.209351 420.537262,689.999817 428.000458,689.999817 
	C428.000458,687.442993 427.864655,685.453369 428.027710,683.488647 
	C428.408478,678.901123 427.169037,676.769348 421.801880,676.865662 
	C402.658783,677.209167 383.504944,677.093628 364.357178,676.923279 
	C360.369415,676.887878 358.686310,677.742920 358.892914,682.163940 
	C359.240631,689.604065 359.178772,689.950623 364.763428,689.990906 
	C370.424683,690.031738 376.091339,690.141907 381.746094,689.946167 
	C385.041290,689.832153 386.184296,691.062622 386.051514,694.305176 
	C385.854095,699.126038 385.999695,703.960999 385.999725,708.789917 
	C385.999817,730.936462 386.005768,753.083008 385.994629,775.229553 
	C385.992767,778.923035 386.753571,782.320068 391.022247,782.910950 
	C394.225983,783.354309 397.540375,782.998535 400.998840,782.998535 
	C400.998840,770.102722 400.998840,757.801331 400.998840,744.500000 
z"/>
<path fill="#1A1A1A" opacity="1.000000" stroke="none" 
	d="
M261.000031,310.996857 
	C261.000000,305.165771 261.038940,299.833618 260.993042,294.502167 
	C260.826172,275.125488 264.253082,256.197876 269.237946,237.641937 
	C276.858978,209.273056 289.553192,183.065384 306.538483,159.152451 
	C313.604645,149.204300 322.224762,140.335739 330.376831,131.188858 
	C342.115570,118.017609 355.697296,106.911621 370.224792,96.984749 
	C394.454559,80.428123 420.769989,68.280281 449.231812,61.118179 
	C460.966461,58.165283 472.984314,56.338039 484.873199,53.998005 
	C502.099121,50.607517 519.571960,51.494450 536.852417,52.275482 
	C554.446228,53.070675 571.791565,56.740326 588.740051,61.968433 
	C612.992737,69.449654 635.724670,80.105530 656.900818,94.036758 
	C676.634277,107.018951 693.905457,122.988724 709.665100,140.395187 
	C722.140137,154.173782 732.779053,169.486725 741.571533,186.016708 
	C753.748657,208.909943 762.418640,232.933517 765.994019,258.676483 
	C767.471680,269.316040 769.101990,279.962463 769.885376,290.662689 
	C770.730835,302.210541 771.490723,313.873749 770.808594,325.399078 
	C769.754822,343.202911 767.053589,360.820740 762.138184,378.105072 
	C757.363342,394.895264 751.063171,411.041412 742.785828,426.306396 
	C734.558655,441.478882 725.287659,456.082977 713.560730,468.916595 
	C705.551270,477.681915 697.758728,486.674042 689.333374,495.024200 
	C676.378357,507.863739 661.740540,518.662720 646.048462,527.932922 
	C630.379822,537.189209 613.908325,544.770813 596.484680,550.164062 
	C581.815491,554.704773 567.000488,558.650146 551.639954,559.977722 
	C538.571289,561.107239 525.452820,563.073425 512.410278,562.713928 
	C497.971436,562.315918 483.552948,559.987122 469.198944,557.975769 
	C446.752197,554.830322 425.636475,547.343201 405.178345,537.707336 
	C387.020905,529.155090 369.832550,519.066467 354.620514,505.974701 
	C344.112946,496.931702 333.687897,487.655548 324.281708,477.505219 
	C312.837982,465.156158 303.188324,451.347290 294.806091,436.615387 
	C285.597198,420.430542 277.848785,403.673096 273.058411,385.711334 
	C269.537170,372.508423 266.406403,359.143188 264.174347,345.672546 
	C262.308868,334.414185 261.998871,322.898071 261.000031,310.996857 
M708.043030,193.381287 
	C703.359070,184.362488 698.900879,175.217514 693.945923,166.350113 
	C682.191772,145.314804 667.568237,126.613220 649.321350,110.663849 
	C634.177551,97.426895 617.424622,87.046555 598.895508,79.464836 
	C568.718811,67.117149 537.468689,60.771408 504.777954,64.090416 
	C490.413849,65.548759 475.999451,67.267090 461.877808,70.177063 
	C441.943207,74.284874 423.119720,81.775398 406.028168,93.033897 
	C391.850769,102.372803 378.944702,113.149826 367.434509,125.807137 
	C351.503632,143.325607 338.608887,162.798508 327.829224,183.703934 
	C317.631714,203.480301 310.664856,224.401108 305.784058,246.195465 
	C301.730194,264.297150 300.254059,282.566833 299.122375,300.919647 
	C298.698547,307.793579 299.360138,314.784576 300.062714,321.667480 
	C301.517761,335.922363 302.959930,350.196350 305.084137,364.360992 
	C308.396271,386.447021 316.118134,407.228180 325.783264,427.222351 
	C335.296417,446.902252 346.983215,465.237885 361.324921,481.877716 
	C376.384277,499.350159 393.162415,514.663330 413.347961,526.042297 
	C439.528778,540.800903 467.823425,548.913818 497.615021,550.761658 
	C516.501404,551.932983 535.485657,551.294250 554.382507,548.181580 
	C577.343689,544.399597 598.984009,537.436218 619.253235,525.991150 
	C642.019653,513.136108 660.716064,495.792877 675.970886,474.738434 
	C683.244080,464.700195 689.869934,454.186554 696.635010,443.788086 
	C707.223022,427.513580 714.672058,409.662567 720.638123,391.368744 
	C726.910339,372.136566 731.648499,352.371948 731.964600,331.920380 
	C732.168030,318.757233 732.780029,305.529755 731.793579,292.437775 
	C730.709473,278.048981 728.567627,263.674530 725.862244,249.489212 
	C722.217834,230.380661 717.746704,211.410690 708.043030,193.381287 
z"/>
<path fill="#1A1A1A" opacity="1.000000" stroke="none" 
	d="
M1152.000000,377.002136 
	C1142.074829,357.443390 1132.190918,338.266602 1122.082520,318.654175 
	C1115.411133,329.983978 1107.809692,340.448395 1107.926880,354.423431 
	C1108.430298,414.506653 1108.668335,474.592133 1108.990967,534.676819 
	C1109.029907,541.921997 1108.996094,549.167542 1108.996094,556.959717 
	C1098.282959,556.959717 1088.659546,557.230591 1079.064575,556.826599 
	C1075.218750,556.664673 1072.528687,554.120911 1072.993164,549.612305 
	C1073.044189,549.117676 1072.999878,548.613098 1072.999878,548.113159 
	C1073.000366,400.455688 1072.946777,252.798157 1073.110718,105.140862 
	C1073.123047,94.075165 1073.606689,83.051422 1070.937866,72.237442 
	C1069.794312,67.603317 1067.946289,63.143021 1066.281494,58.197109 
	C1067.348389,58.137547 1068.578247,58.011044 1069.808228,58.009289 
	C1080.640869,57.993816 1091.477783,58.179020 1102.304199,57.917896 
	C1107.014160,57.804298 1108.590210,60.180309 1108.980103,64.189171 
	C1109.092529,65.344864 1108.998657,66.520676 1108.998535,67.687271 
	C1108.998535,148.515518 1108.998291,229.343781 1108.998047,310.172028 
	C1108.998047,311.930817 1108.997925,313.689606 1108.997925,316.790039 
	C1116.433960,304.220245 1123.231689,292.817719 1129.942627,281.364532 
	C1139.685181,264.737732 1149.359497,248.071045 1159.073730,231.427734 
	C1166.700684,218.360687 1174.347046,205.305023 1181.979248,192.241028 
	C1190.741211,177.243530 1199.522339,162.257095 1208.248291,147.238663 
	C1216.885010,132.373856 1225.431030,117.456345 1234.077271,102.597054 
	C1242.005737,88.971352 1249.949707,75.353783 1258.025757,61.815540 
	C1260.575806,57.540718 1264.347778,57.032284 1273.101318,59.337208 
	C1267.088501,69.732414 1261.150879,80.019592 1255.191895,90.294357 
	C1247.374146,103.774071 1239.566406,117.259804 1231.704346,130.713760 
	C1224.563110,142.934189 1217.325317,155.098160 1210.184448,167.318878 
	C1202.322876,180.773315 1194.550781,194.280075 1186.688721,207.734222 
	C1179.547729,219.954605 1172.326660,232.128143 1165.162354,244.334915 
	C1158.575439,255.558105 1151.770020,266.666077 1145.637939,278.133362 
	C1144.280273,280.672333 1144.205200,285.063904 1145.471313,287.660400 
	C1159.484985,316.396210 1173.814209,344.979248 1188.187012,373.538727 
	C1208.398560,413.699799 1228.445312,453.947876 1249.112549,493.874023 
	C1258.937378,512.854065 1267.411133,532.677429 1280.907593,549.598328 
	C1282.367188,551.428223 1283.497192,553.521057 1285.013550,555.850281 
	C1268.869629,555.850281 1253.277588,555.850281 1237.438965,555.850281 
	C1232.071045,534.713440 1221.846924,515.580994 1212.048462,496.248474 
	C1191.983032,456.658966 1172.036743,417.009094 1152.000000,377.002136 
z"/>
<path fill="#1A1A1A" opacity="1.000000" stroke="none" 
	d="
M29.001438,554.603027 
	C28.999538,402.654022 28.968962,251.176041 29.051207,99.698097 
	C29.058777,85.755188 28.819986,71.966743 22.203455,59.125893 
	C36.160904,59.125893 49.798130,59.125893 63.799896,59.125893 
	C63.799896,144.976837 63.799896,230.703690 63.799896,316.430542 
	C64.169777,316.585510 64.539665,316.740448 64.909546,316.895416 
	C68.278358,311.211761 71.659477,305.535400 75.013855,299.843231 
	C88.655464,276.694275 102.375084,253.590668 115.900009,230.373672 
	C128.368378,208.970383 140.516693,187.380478 153.005127,165.989044 
	C164.843246,145.711487 177.013367,125.628006 188.896667,105.376541 
	C196.714417,92.053558 204.327438,78.609558 211.944717,65.170204 
	C216.193893,57.673241 218.941437,56.600193 229.139008,59.351910 
	C223.020950,69.847694 216.995804,80.201820 210.953293,90.545807 
	C203.320480,103.612198 195.648422,116.655731 188.039276,129.735870 
	C179.403595,144.580612 170.848480,159.472244 162.202835,174.311157 
	C154.675735,187.230286 147.088882,200.114746 139.497192,212.996109 
	C127.505348,233.343475 115.506920,253.687012 103.467422,274.006195 
	C100.234619,279.462219 99.274780,284.249664 102.711906,290.659424 
	C113.006660,309.857788 122.249924,329.617706 132.024338,349.097839 
	C156.669266,398.214569 181.206329,447.386749 206.151016,496.351074 
	C216.054901,515.791504 225.935501,535.321472 239.273849,552.784363 
	C239.918015,553.627747 240.242905,554.714844 240.818710,555.898682 
	C225.201233,555.898682 209.918167,555.898682 194.302094,555.898682 
	C190.889526,547.211243 187.924530,538.229919 183.911713,529.744080 
	C175.377792,511.697418 166.317856,493.899139 157.438248,476.016571 
	C149.650818,460.333557 141.835281,444.664459 133.996124,429.007233 
	C122.066582,405.180145 110.152412,381.345154 98.139786,357.559937 
	C91.632133,344.674683 84.934090,331.885651 77.991356,318.411621 
	C73.631325,325.905823 69.383904,332.992340 65.412239,340.230194 
	C64.695862,341.535706 65.021362,343.463440 65.020920,345.103973 
	C65.002792,412.427521 65.003632,479.751038 64.992035,547.074585 
	C64.991776,548.564026 65.004143,550.072571 64.788040,551.539368 
	C64.181999,555.652649 62.039654,557.331177 57.593655,557.111389 
	C49.614307,556.716980 41.599121,557.100342 33.604683,556.912781 
	C32.057446,556.876526 30.536564,555.715942 29.001438,554.603027 
z"/>
<path fill="#1A1A1A" opacity="1.000000" stroke="none" 
	d="
M1369.000244,176.000000 
	C1369.000244,222.811081 1369.000244,269.122162 1369.000244,315.433258 
	C1369.251709,315.573425 1369.503174,315.713623 1369.754761,315.853790 
	C1372.232666,311.700195 1374.725708,307.555573 1377.185791,303.391449 
	C1387.323120,286.232117 1397.514526,269.104248 1407.563354,251.893250 
	C1417.710327,234.513626 1427.654053,217.015244 1437.795410,199.632278 
	C1447.260986,183.407471 1456.923828,167.297897 1466.397583,151.077850 
	C1474.189331,137.737335 1481.781860,124.280678 1489.551636,110.927177 
	C1498.928711,94.811119 1508.456543,78.782677 1517.795776,62.644947 
	C1520.728027,57.578209 1525.302979,56.445137 1533.138916,59.826984 
	C1521.094971,80.509697 1509.108276,101.190453 1497.025513,121.814842 
	C1486.210815,140.274750 1475.230225,158.637482 1464.432739,177.107361 
	C1453.234985,196.262009 1442.164551,215.491165 1431.047485,234.692947 
	C1422.920532,248.730347 1415.088501,262.950287 1406.536133,276.723358 
	C1403.570312,281.499908 1404.056396,285.322388 1406.288330,289.710052 
	C1418.038940,312.808289 1429.841675,335.880432 1441.495972,359.027161 
	C1455.729492,387.296356 1469.794678,415.650269 1484.005127,443.931152 
	C1497.371460,470.532166 1510.490845,497.266357 1524.413208,523.574524 
	C1530.258057,534.618958 1537.889526,544.717834 1545.086304,555.829895 
	C1543.159546,556.219421 1541.228638,556.930908 1539.291504,556.948730 
	C1527.794800,557.054810 1516.292603,556.823853 1504.800537,557.079163 
	C1499.571167,557.195312 1496.843628,556.040527 1495.384277,550.170776 
	C1491.251587,533.549133 1483.345337,518.372314 1475.650146,503.144501 
	C1445.750000,443.976440 1415.971436,384.747070 1386.132080,325.548309 
	C1385.053101,323.407593 1383.813477,321.347870 1382.232300,318.500549 
	C1376.990967,328.912109 1368.809082,337.077545 1368.861572,349.691315 
	C1369.139160,416.509796 1368.949219,483.330170 1369.085327,550.149536 
	C1369.096802,555.767883 1367.420898,557.303894 1362.303589,557.084167 
	C1354.818848,556.762756 1347.306152,556.851746 1339.813232,557.056580 
	C1335.447388,557.175903 1333.904541,555.716431 1333.907959,551.118713 
	C1334.019409,400.649017 1334.068970,250.179184 1333.884766,99.709656 
	C1333.867676,85.795952 1333.074219,71.744095 1325.986084,57.999256 
	C1335.155762,57.999256 1343.212158,57.998108 1351.268555,57.999828 
	C1354.434570,58.000504 1357.600586,58.006603 1360.766602,58.011971 
	C1367.346558,58.023129 1368.994141,59.708786 1368.996582,66.524323 
	C1369.005127,89.519699 1369.000244,112.515076 1369.000244,135.510452 
	C1369.000366,148.840302 1369.000244,162.170151 1369.000244,176.000000 
z"/>
<path fill="#1A1A1A" opacity="1.000000" stroke="none" 
	d="
M1701.001709,117.870903 
	C1703.002075,128.120178 1705.145996,137.900253 1706.962158,147.740845 
	C1709.136230,159.521042 1710.921387,171.372803 1713.075928,183.156845 
	C1715.255005,195.075165 1717.695435,206.945572 1719.993164,218.842438 
	C1723.333130,236.137314 1726.736450,253.420654 1729.947876,270.739502 
	C1733.073120,287.594055 1735.911865,304.501648 1739.022461,321.358978 
	C1741.864746,336.762939 1744.996826,352.113464 1747.828247,367.519318 
	C1750.664185,382.948486 1753.234619,398.426270 1756.017822,413.865417 
	C1758.341309,426.754639 1760.809937,439.617676 1763.203857,452.494232 
	C1765.477295,464.723633 1767.501953,477.004883 1770.053955,489.175690 
	C1774.710083,511.381134 1776.984985,534.164917 1786.447510,555.687256 
	C1770.447754,555.687256 1755.061768,555.687256 1738.910278,555.687256 
	C1739.604126,551.710083 1739.916992,547.589722 1741.080811,543.725708 
	C1743.578735,535.432190 1741.020630,527.494629 1739.736206,519.528992 
	C1737.807007,507.563904 1735.277100,495.695679 1733.000610,483.786621 
	C1732.002197,478.563812 1731.327515,473.243896 1729.814941,468.174164 
	C1729.302734,466.457153 1726.739746,464.307861 1724.989502,464.188904 
	C1718.187988,463.726685 1711.336304,464.001678 1704.503296,464.001709 
	C1667.838379,464.001831 1631.173584,464.001923 1594.508667,464.001648 
	C1586.909546,464.001587 1586.441040,464.197479 1585.071899,471.927368 
	C1581.938477,489.618469 1579.039917,507.351013 1575.990112,525.057129 
	C1574.479858,533.825562 1573.044922,542.614807 1571.200317,551.315002 
	C1569.917603,557.364014 1567.724976,558.334778 1561.823486,556.434937 
	C1560.928467,556.146912 1560.036011,555.851501 1558.731812,555.425293 
	C1562.150513,537.278015 1565.690796,519.224548 1568.921509,501.115875 
	C1571.793701,485.017792 1574.202271,468.837280 1577.038086,452.732361 
	C1579.815063,436.961792 1582.966675,421.257446 1585.779663,405.492981 
	C1588.309448,391.315063 1590.499756,377.076538 1593.030029,362.898682 
	C1595.499512,349.061523 1598.304688,335.284393 1600.787842,321.449585 
	C1603.303589,307.433411 1605.539673,293.367157 1608.019165,279.344238 
	C1610.467651,265.497070 1613.122314,251.686447 1615.584351,237.841583 
	C1617.795166,225.408371 1619.823608,212.942764 1622.012939,200.505630 
	C1624.087891,188.719330 1626.298340,176.956909 1628.392578,165.173935 
	C1630.629761,152.587204 1632.795898,139.987823 1635.002197,127.395576 
	C1636.929688,116.394325 1639.362793,105.452873 1640.657104,94.378021 
	C1641.798584,84.610405 1641.475220,74.728691 1638.590698,65.107841 
	C1636.807739,59.160976 1637.752441,57.889877 1643.787109,58.028458 
	C1653.369019,58.248505 1662.972046,58.334621 1672.519165,59.079811 
	C1683.601440,59.944805 1690.844727,66.513351 1693.345459,76.974281 
	C1696.532715,90.307053 1698.504395,103.930397 1701.001709,117.870903 
M1661.995483,99.594276 
	C1660.290771,90.860123 1658.586182,82.125961 1656.646973,72.189331 
	C1634.083252,199.490524 1611.759033,325.440979 1589.383789,451.679535 
	C1635.840698,451.679535 1681.349487,451.679535 1726.670776,451.679535 
	C1725.712891,445.484009 1724.958862,439.539307 1723.854370,433.660522 
	C1720.306885,414.779480 1716.517334,395.943542 1713.032959,377.051117 
	C1709.220703,356.380768 1705.769165,335.643677 1701.926270,314.979156 
	C1698.796997,298.152527 1695.150269,281.421814 1692.048828,264.590363 
	C1688.823853,247.088730 1686.143555,229.486725 1682.918579,211.985077 
	C1679.816895,195.152069 1676.188965,178.416473 1673.036133,161.592377 
	C1669.223389,141.246140 1665.667236,120.851822 1661.995483,99.594276 
z"/>
<path fill="#1A1A1A" opacity="1.000000" stroke="none" 
	d="
M822.970642,170.045120 
	C813.640930,141.107773 804.444031,112.549057 794.964233,84.084557 
	C792.177917,75.718185 788.589661,67.618896 785.282654,59.177101 
	C801.202637,59.177101 816.922974,59.177101 833.188232,59.177101 
	C832.427612,63.173878 830.969910,66.963341 831.163452,70.666512 
	C831.508362,77.266457 832.048340,84.053825 833.923462,90.340240 
	C840.294739,111.700432 847.238464,132.890884 854.050415,154.118317 
	C862.478882,180.383377 870.990356,206.621841 879.473389,232.869415 
	C885.543457,251.650940 891.689758,270.408112 897.686340,289.213013 
	C905.584473,313.980865 913.366272,338.785797 921.227234,363.565552 
	C921.360352,363.985260 921.862915,364.287811 922.707336,365.201141 
	C929.227295,344.094635 935.477051,323.359802 942.048828,302.727570 
	C948.866821,281.322540 956.083984,260.044922 962.966125,238.659958 
	C970.186951,216.222488 977.187317,193.714157 984.339294,171.254395 
	C991.690063,148.169998 999.118530,125.110390 1006.491211,102.032974 
	C1010.346069,89.966949 1014.425720,77.963211 1017.888428,65.784798 
	C1020.225342,57.566166 1022.169739,56.530849 1031.236206,59.580544 
	C1025.162598,78.496643 1019.051697,97.410187 1013.018982,116.348648 
	C1005.865173,138.806473 998.771667,161.283478 991.665283,183.756348 
	C984.751953,205.619049 977.911621,227.505035 970.936340,249.347916 
	C963.517395,272.580322 955.908508,295.752106 948.511230,318.991364 
	C942.229065,338.727448 936.056091,358.499329 930.017151,378.310944 
	C928.899414,381.977936 928.092773,385.908295 928.083923,389.719238 
	C927.959961,443.043304 928.000305,496.367737 927.999146,549.692078 
	C927.998962,557.001465 927.995178,557.003357 920.620239,557.001221 
	C913.288147,556.999084 905.951599,556.835571 898.625671,557.045532 
	C894.072449,557.176025 892.623291,554.530945 892.025208,550.799377 
	C891.868958,549.824768 892.005249,548.803467 892.005188,547.803650 
	C892.004211,500.811615 891.585510,453.813751 892.238342,406.830811 
	C892.453857,391.318329 889.558777,376.835754 884.789917,362.362885 
	C875.207886,333.283173 865.800781,304.145294 856.438049,274.993988 
	C848.146729,249.178635 840.031860,223.306625 831.800171,197.472046 
	C828.925110,188.448868 825.933777,179.462753 822.970642,170.045120 
z"/>
<path fill="#1A1A1A" opacity="1.000000" stroke="none" 
	d="
M648.685547,778.815674 
	C629.339172,787.559814 610.855591,786.429077 593.424622,774.969788 
	C583.441772,768.406860 576.908142,758.980469 574.595520,747.099182 
	C571.548401,731.444153 571.659302,716.015686 578.972900,701.302917 
	C585.886536,687.394775 597.518066,680.222107 612.334351,676.902893 
	C625.851501,673.874695 639.085266,674.441589 650.960388,681.283386 
	C657.799683,685.223938 663.049011,691.946472 668.943909,697.491394 
	C670.956482,699.384460 670.229736,700.824890 667.954773,702.036865 
	C664.414795,703.922607 660.976257,705.998779 657.480164,708.002747 
	C650.540222,691.535522 630.023132,685.699280 613.933411,690.532410 
	C598.542908,695.155457 590.490234,705.663391 587.829407,721.398621 
	C586.185974,731.117615 587.400879,740.191223 590.672546,749.142151 
	C597.250671,767.138794 620.331421,774.452759 636.042908,769.549927 
	C646.637146,766.243896 654.610229,760.317139 658.098511,749.397583 
	C658.920898,746.823120 659.470703,744.161682 660.285156,740.999695 
	C651.080811,740.999695 642.293518,741.000000 633.506165,740.999634 
	C624.927185,740.999329 624.927979,740.999023 624.999390,732.392151 
	C625.007446,731.419434 625.000488,730.446533 625.000488,729.002136 
	C640.737610,729.002136 656.185303,728.932678 671.629028,729.145203 
	C672.760437,729.160767 674.820374,731.202087 674.836121,732.324158 
	C675.055359,747.986572 675.079407,763.653687 674.929749,779.317627 
	C674.898621,782.584595 670.774597,784.360291 665.674194,782.758301 
	C664.159119,782.282471 662.818787,779.108704 662.622559,777.054260 
	C662.291382,773.586548 662.936951,770.025452 663.144348,766.914062 
	C658.326782,770.870544 653.648376,774.712708 648.685547,778.815674 
z"/>
<path fill="#1A1A1A" opacity="1.000000" stroke="none" 
	d="
M251.703674,692.794067 
	C263.835144,679.849365 278.663757,673.451477 295.772797,675.210327 
	C319.912964,677.691833 338.413300,689.768066 343.848541,716.119568 
	C346.705933,729.972778 345.464661,743.946899 339.524261,756.801697 
	C333.155884,770.582764 321.779633,778.952026 306.953186,782.572693 
	C286.782593,787.498352 268.552338,783.902649 253.757599,768.998718 
	C245.416306,760.595886 241.404556,749.774475 239.799515,737.768799 
	C238.280258,726.404846 239.771835,715.777100 244.112686,705.477478 
	C245.964676,701.083313 248.961777,697.171753 251.703674,692.794067 
M275.546722,767.077393 
	C282.801392,770.240540 290.176453,771.369019 298.177490,770.114868 
	C310.704285,768.151428 322.127869,760.601807 327.128448,748.084106 
	C330.551758,739.514587 330.870026,730.691956 329.798248,721.980469 
	C328.679779,712.889160 325.033386,704.209412 317.601654,698.382019 
	C307.968872,690.828735 296.951508,687.358765 284.452148,689.954651 
	C273.277924,692.275391 264.873413,698.310120 259.028870,707.958435 
	C254.663498,715.164856 253.823563,723.153809 253.947433,731.433167 
	C254.184708,747.290344 260.877777,759.199036 275.546722,767.077393 
z"/>
<path fill="#1A1A1A" opacity="1.000000" stroke="none" 
	d="
M442.968109,719.895020 
	C443.997009,709.882568 447.664062,701.313232 453.653961,693.959167 
	C462.874146,682.639038 474.945801,677.062988 489.649109,675.839417 
	C507.491852,674.354675 522.611450,679.192749 534.749268,692.345398 
	C542.414734,700.651733 546.500427,710.766174 546.916809,722.044495 
	C547.278748,731.848755 547.421509,741.643494 544.086731,751.229187 
	C537.284851,770.780518 519.309326,783.807983 498.814514,784.120361 
	C485.961761,784.316284 473.765045,782.861450 463.203339,774.999512 
	C451.903015,766.587769 444.840607,755.309143 443.140442,741.283569 
	C442.305695,734.397400 442.960693,727.330566 442.968109,719.895020 
M497.229950,770.996948 
	C503.289978,769.020020 509.894531,767.984924 515.293091,764.863831 
	C525.539001,758.940247 530.539124,749.255676 532.293884,737.469666 
	C534.360352,723.590088 531.539368,711.255066 522.214539,700.826050 
	C512.826111,690.325806 500.591187,687.668823 487.174103,690.091431 
	C478.703583,691.620789 471.218201,695.531921 465.487549,702.074341 
	C456.169830,712.711975 455.200928,725.994934 457.346802,738.652954 
	C460.815277,759.112671 474.652283,770.417053 497.229950,770.996948 
z"/>
<path fill="#1A1A1A" opacity="1.000000" stroke="none" 
	d="
M1039.000000,751.017029 
	C1039.000000,761.818298 1039.000000,772.122437 1039.000000,782.998230 
	C1035.516479,782.998230 1032.195190,783.365479 1028.991699,782.907654 
	C1024.748901,782.301208 1023.991028,778.903809 1023.993286,775.217346 
	C1024.006592,753.229980 1024.000122,731.242676 1024.000366,709.255310 
	C1024.000366,698.639282 1024.000488,688.023254 1024.000488,677.210938 
	C1029.138062,677.210938 1033.871826,677.210938 1039.000000,677.210938 
	C1039.000000,690.367188 1039.182129,703.319885 1038.907471,716.262939 
	C1038.802124,721.232361 1040.315186,723.217773 1045.898438,723.092712 
	C1058.884521,722.801697 1071.882935,722.884399 1084.873047,723.063782 
	C1089.317383,723.125122 1091.142090,721.602905 1091.066040,717.020203 
	C1090.869629,705.196960 1090.977295,693.368164 1091.011597,681.541748 
	C1091.024658,677.014343 1092.826050,675.826111 1097.407837,676.712585 
	C1099.661499,677.148621 1102.028076,677.000122 1104.865845,677.142334 
	C1105.235474,681.336060 1105.932251,685.672058 1105.948730,690.010681 
	C1106.051025,716.828247 1106.026489,743.646362 1105.957642,770.464111 
	C1105.951050,773.033813 1105.545288,775.647156 1104.959595,778.154907 
	C1104.566162,779.839233 1103.591309,782.706116 1102.767822,782.745056 
	C1099.048828,782.920837 1095.273193,782.384155 1091.573975,781.768127 
	C1091.192383,781.704651 1091.028198,779.409363 1091.023926,778.148865 
	C1090.983887,766.155884 1090.875366,754.160767 1091.065308,742.170654 
	C1091.135376,737.746155 1089.649536,735.877686 1085.060303,735.937988 
	C1071.736938,736.113098 1058.408203,736.115479 1045.084961,735.935669 
	C1040.599609,735.875061 1038.632324,737.485535 1038.962036,742.027588 
	C1039.166626,744.844421 1039.000000,747.688232 1039.000000,751.017029 
z"/>
<path fill="#1A1A1A" opacity="1.000000" stroke="none" 
	d="
M748.745605,752.342896 
	C746.340027,748.289490 743.885193,744.676147 742.018433,740.781006 
	C738.645325,733.742615 730.235413,733.831604 725.719421,736.408569 
	C723.987915,737.396667 723.177551,741.177124 723.117065,743.713013 
	C722.847168,755.036621 722.839478,766.373901 723.084656,777.698669 
	C723.173401,781.799988 722.083496,783.261230 717.772949,783.097290 
	C707.804199,782.718018 709.020386,784.107727 709.010925,774.219910 
	C708.981628,743.562012 709.000183,712.904053 709.000122,682.246155 
	C709.000122,680.626343 709.000122,679.006592 709.000122,677.999878 
	C725.275696,677.999878 741.145752,677.501709 756.958679,678.235596 
	C763.648621,678.546021 768.784912,683.581909 771.999084,689.498474 
	C777.611023,699.828796 779.203552,710.567993 772.916443,721.260498 
	C770.014099,726.196533 766.503906,730.650085 760.448669,732.282898 
	C758.323303,732.856079 756.432129,734.297791 754.328857,735.397888 
	C763.719604,750.879700 773.147949,766.423462 783.204895,783.003479 
	C777.450378,783.003479 773.005005,783.312195 768.643555,782.842651 
	C767.030273,782.669006 765.094971,780.971741 764.193420,779.445496 
	C758.969421,770.602234 754.010254,761.602539 748.745605,752.342896 
M756.924316,719.585693 
	C766.443115,709.745178 763.696228,690.996460 746.390381,689.993103 
	C740.488647,689.650879 734.574585,689.459290 728.686890,688.956604 
	C724.416748,688.591919 723.100830,691.056458 723.044434,694.521362 
	C722.909119,702.843811 722.764526,711.182617 723.208374,719.483521 
	C723.292847,721.062622 725.906006,723.521790 727.633423,723.794495 
	C731.694641,724.435364 736.004150,724.506287 740.068787,723.876038 
	C745.531128,723.029053 750.857361,721.304504 756.924316,719.585693 
z"/>
<path fill="#1A1A1A" opacity="1.000000" stroke="none" 
	d="
M172.998688,736.000000 
	C163.834305,736.000061 155.167953,736.098633 146.505569,735.956665 
	C142.436722,735.890015 140.912994,737.609314 140.954346,741.607910 
	C141.080154,753.770508 140.858459,765.937927 141.083252,778.097717 
	C141.153549,781.900696 139.523544,783.052795 136.201080,783.000427 
	C135.867905,782.995178 135.534576,783.000854 135.201309,782.999878 
	C126.046043,782.972229 126.999161,783.708740 126.999733,775.132019 
	C127.000771,759.802124 127.130051,744.470825 126.963196,729.142761 
	C126.798965,714.056091 126.210449,698.973328 126.132629,683.887268 
	C126.120880,681.610535 127.513245,677.664246 128.881668,677.366638 
	C132.430435,676.594849 136.349457,677.275818 140.060669,677.800964 
	C140.552521,677.870667 140.951202,680.404358 140.959702,681.799561 
	C141.030716,693.463196 141.120926,705.129272 140.938202,716.790466 
	C140.869614,721.167297 142.259033,723.127869 146.904800,723.064819 
	C160.399277,722.881531 173.898315,722.937683 187.394531,723.038269 
	C191.389572,723.068054 193.238174,721.971985 193.108688,717.422180 
	C192.781754,705.934082 192.979767,694.430420 193.008499,682.933044 
	C193.023102,677.087219 194.948868,675.616760 200.682251,676.845032 
	C201.640503,677.050354 202.675720,677.079041 203.653351,676.977478 
	C206.837112,676.646667 208.068039,677.845337 208.057724,681.197021 
	C207.960861,712.689636 207.969086,744.182800 208.026184,775.675598 
	C208.037460,781.899414 204.610550,783.275085 198.567276,782.546997 
	C193.100647,781.888306 192.852554,779.421448 192.929459,775.166565 
	C193.137207,763.672852 192.879776,752.171021 193.073151,740.676819 
	C193.132370,737.156128 191.577301,736.016296 188.495285,736.005676 
	C183.496368,735.988403 178.497330,736.000366 172.998688,736.000000 
z"/>
<path fill="#1A1A1A" opacity="1.000000" stroke="none" 
	d="
M816.997192,735.130493 
	C820.656616,725.140381 824.361877,715.573120 827.958374,705.965210 
	C831.045471,697.718140 833.862000,689.365784 837.144714,681.199280 
	C837.832703,679.487854 839.805115,677.810730 841.579041,677.100342 
	C849.920288,673.760193 856.586792,677.728760 860.041382,687.203003 
	C870.510681,715.915588 881.162476,744.561646 891.705261,773.247559 
	C892.643616,775.800598 893.307129,778.454651 894.088684,781.030029 
	C885.628906,785.365234 879.327026,783.151245 876.962280,775.304199 
	C875.764160,771.328369 874.397644,767.382202 872.784424,763.558838 
	C871.326599,760.103638 869.192078,757.764038 864.661865,757.890686 
	C853.018250,758.216125 841.359009,758.059448 829.707031,757.966919 
	C825.564880,757.934021 823.077820,759.444336 821.925903,763.665588 
	C820.580566,768.596130 818.730835,773.397827 816.933777,778.193176 
	C815.780396,781.270752 814.025024,783.523987 810.048828,783.074280 
	C806.809509,782.707947 803.495789,782.999817 799.683350,782.999817 
	C805.587036,766.814209 811.291504,751.174988 816.997192,735.130493 
M839.539612,745.000244 
	C848.290161,745.000244 857.040649,745.000244 866.075195,745.000244 
	C859.799683,727.452087 853.715637,710.439453 847.305054,692.513611 
	C840.952087,710.432434 834.920227,727.445374 828.696289,745.000244 
	C832.331421,745.000244 835.445007,745.000244 839.539612,745.000244 
z"/>
<path fill="#1A1A1A" opacity="1.000000" stroke="none" 
	d="
M932.043823,783.000000 
	C923.839966,783.785706 921.801331,781.231201 921.892212,773.422180 
	C922.184692,748.287659 922.004150,723.147583 922.005737,698.009644 
	C922.006165,690.809448 922.005798,683.609253 922.005798,675.634521 
	C936.482178,676.444519 949.603394,677.180359 962.724976,677.909363 
	C963.718506,677.964478 964.714600,677.983154 965.709778,677.998230 
	C984.832397,678.286987 997.732300,695.722473 994.285950,714.705505 
	C991.870850,728.008728 985.162598,737.088928 972.613831,740.403870 
	C964.670044,742.502380 955.930420,741.776733 947.540161,741.948547 
	C937.002991,742.164307 936.999695,742.001465 936.999878,752.498291 
	C937.000000,762.466370 936.999939,772.434448 936.999939,782.747437 
	C935.372559,782.838989 933.942078,782.919495 932.043823,783.000000 
M937.000061,697.598450 
	C937.000061,706.594971 937.050415,715.591980 936.969238,724.587769 
	C936.945190,727.251465 937.252380,729.107483 940.648987,729.044189 
	C948.309998,728.901428 955.985657,729.244812 963.636536,728.931885 
	C971.747986,728.600220 979.323547,721.073730 979.964783,712.944946 
	C980.848694,701.739380 977.747559,693.675720 967.907593,691.200745 
	C960.411072,689.315125 952.366089,689.406067 944.545593,689.070435 
	C937.011169,688.747131 937.000244,689.002258 937.000061,697.598450 
z"/>
<path fill="#1A1A1A" opacity="1.000000" stroke="none" 
	d="
M24.000183,742.000000 
	C24.000183,720.206726 24.000183,698.913452 24.000183,677.000061 
	C30.267250,677.000061 36.357491,677.000061 42.447731,677.000061 
	C50.605747,677.000061 58.773907,677.260986 66.919601,676.944153 
	C82.480309,676.338867 95.925674,691.358032 96.085838,706.076477 
	C96.193710,715.989319 94.842506,725.199951 87.755035,732.731567 
	C81.884590,738.969910 74.346138,741.547729 66.066612,741.934998 
	C59.255405,742.253479 52.417461,741.999573 45.591366,742.000305 
	C38.970913,742.001038 37.923210,742.881714 38.041721,749.627136 
	C38.210133,759.212341 38.671757,768.792419 38.993721,778.375122 
	C39.038013,779.693481 38.999825,781.014587 38.999825,782.999756 
	C35.111080,782.999756 31.168135,783.682800 27.692135,782.705322 
	C26.009470,782.232178 24.232464,778.672913 24.163321,776.458862 
	C23.810104,765.148560 24.000151,753.821350 24.000183,742.000000 
M67.184792,690.001038 
	C59.634064,689.667297 52.085968,689.235474 44.531723,689.032532 
	C39.015934,688.884399 38.042751,689.955322 38.011765,695.661377 
	C37.965717,704.140503 37.911373,712.621582 38.052135,721.098633 
	C38.096046,723.743286 38.759335,726.377686 39.136696,729.000122 
	C48.121693,729.000122 56.507397,729.672546 64.707893,728.731262 
	C69.156349,728.220703 74.806297,726.084290 77.283821,722.735291 
	C85.109406,712.157104 83.634041,694.417908 67.184792,690.001038 
z"/>
<path fill="#1A1A1A" opacity="1.000000" stroke="none" 
	d="
M1180.999878,744.062012 
	C1180.999878,756.863831 1180.999878,769.174866 1180.999878,781.596313 
	C1179.958496,781.896240 1179.068237,782.143860 1178.183105,782.408997 
	C1169.106934,785.127319 1167.000488,783.582153 1167.000244,774.201416 
	C1167.000122,766.872314 1166.650513,759.522827 1167.075073,752.218445 
	C1167.884155,738.299561 1163.661133,726.257996 1155.639038,714.951538 
	C1147.923950,704.077759 1141.145996,692.537598 1134.013306,681.254089 
	C1133.265869,680.071594 1132.905884,678.644226 1132.230591,677.000793 
	C1136.805176,677.000793 1141.125610,676.640564 1145.337524,677.160400 
	C1147.296509,677.402161 1149.733765,678.922852 1150.778198,680.597412 
	C1158.428711,692.862854 1165.780884,705.314453 1173.667725,718.440369 
	C1177.931641,711.773743 1182.061279,705.547363 1185.947632,699.172668 
	C1189.455200,693.419312 1192.401978,687.305664 1196.154907,681.726624 
	C1198.815308,677.771484 1202.302124,674.617188 1208.039917,676.845520 
	C1210.010620,677.610840 1212.528564,676.967102 1215.849976,676.967102 
	C1210.416016,685.837158 1205.560547,693.915161 1200.552002,701.897034 
	C1195.164062,710.483582 1189.052612,718.679016 1184.402588,727.639648 
	C1181.990845,732.287292 1182.054565,738.219421 1180.999878,744.062012 
z"/>
<path fill="#1A1A1A" opacity="1.000000" stroke="none" 
	d="
M400.998840,745.000000 
	C400.998840,757.801331 400.998840,770.102722 400.998840,782.998535 
	C397.540375,782.998535 394.225983,783.354309 391.022247,782.910950 
	C386.753571,782.320068 385.992767,778.923035 385.994629,775.229553 
	C386.005768,753.083008 385.999817,730.936462 385.999725,708.789917 
	C385.999695,703.960999 385.854095,699.126038 386.051514,694.305176 
	C386.184296,691.062622 385.041290,689.832153 381.746094,689.946167 
	C376.091339,690.141907 370.424683,690.031738 364.763428,689.990906 
	C359.178772,689.950623 359.240631,689.604065 358.892914,682.163940 
	C358.686310,677.742920 360.369415,676.887878 364.357178,676.923279 
	C383.504944,677.093628 402.658783,677.209167 421.801880,676.865662 
	C427.169037,676.769348 428.408478,678.901123 428.027710,683.488647 
	C427.864655,685.453369 428.000458,687.442993 428.000458,689.999817 
	C420.537262,689.999817 413.264709,690.209351 406.012360,689.917053 
	C402.002502,689.755432 400.869843,691.098511 400.916901,695.045898 
	C401.113342,711.528625 400.999146,728.014954 400.998840,745.000000 
z"/>
<path fill="#FFFFFF" opacity="1.000000" stroke="none" 
	d="
M708.272278,193.690399 
	C717.746704,211.410690 722.217834,230.380661 725.862244,249.489212 
	C728.567627,263.674530 730.709473,278.048981 731.793579,292.437775 
	C732.780029,305.529755 732.168030,318.757233 731.964600,331.920380 
	C731.648499,352.371948 726.910339,372.136566 720.638123,391.368744 
	C714.672058,409.662567 707.223022,427.513580 696.635010,443.788086 
	C689.869934,454.186554 683.244080,464.700195 675.970886,474.738434 
	C660.716064,495.792877 642.019653,513.136108 619.253235,525.991150 
	C598.984009,537.436218 577.343689,544.399597 554.382507,548.181580 
	C535.485657,551.294250 516.501404,551.932983 497.615021,550.761658 
	C467.823425,548.913818 439.528778,540.800903 413.347961,526.042297 
	C393.162415,514.663330 376.384277,499.350159 361.324921,481.877716 
	C346.983215,465.237885 335.296417,446.902252 325.783264,427.222351 
	C316.118134,407.228180 308.396271,386.447021 305.084137,364.360992 
	C302.959930,350.196350 301.517761,335.922363 300.062714,321.667480 
	C299.360138,314.784576 298.698547,307.793579 299.122375,300.919647 
	C300.254059,282.566833 301.730194,264.297150 305.784058,246.195465 
	C310.664856,224.401108 317.631714,203.480301 327.829224,183.703934 
	C338.608887,162.798508 351.503632,143.325607 367.434509,125.807137 
	C378.944702,113.149826 391.850769,102.372803 406.028168,93.033897 
	C423.119720,81.775398 441.943207,74.284874 461.877808,70.177063 
	C475.999451,67.267090 490.413849,65.548759 504.777954,64.090416 
	C537.468689,60.771408 568.718811,67.117149 598.895508,79.464836 
	C617.424622,87.046555 634.177551,97.426895 649.321350,110.663849 
	C667.568237,126.613220 682.191772,145.314804 693.945923,166.350113 
	C698.900879,175.217514 703.359070,184.362488 708.272278,193.690399 
z"/>
<path fill="#FFFFFF" opacity="1.000000" stroke="none" 
	d="
M1661.997803,100.036301 
	C1665.667236,120.851822 1669.223389,141.246140 1673.036133,161.592377 
	C1676.188965,178.416473 1679.816895,195.152069 1682.918579,211.985077 
	C1686.143555,229.486725 1688.823853,247.088730 1692.048828,264.590363 
	C1695.150269,281.421814 1698.796997,298.152527 1701.926270,314.979156 
	C1705.769165,335.643677 1709.220703,356.380768 1713.032959,377.051117 
	C1716.517334,395.943542 1720.306885,414.779480 1723.854370,433.660522 
	C1724.958862,439.539307 1725.712891,445.484009 1726.670776,451.679535 
	C1681.349487,451.679535 1635.840698,451.679535 1589.383789,451.679535 
	C1611.759033,325.440979 1634.083252,199.490524 1656.646973,72.189331 
	C1658.586182,82.125961 1660.290771,90.860123 1661.997803,100.036301 
z"/>
<path fill="#FFFFFF" opacity="1.000000" stroke="none" 
	d="
M275.157959,767.025879 
	C260.877777,759.199036 254.184708,747.290344 253.947433,731.433167 
	C253.823563,723.153809 254.663498,715.164856 259.028870,707.958435 
	C264.873413,698.310120 273.277924,692.275391 284.452148,689.954651 
	C296.951508,687.358765 307.968872,690.828735 317.601654,698.382019 
	C325.033386,704.209412 328.679779,712.889160 329.798248,721.980469 
	C330.870026,730.691956 330.551758,739.514587 327.128448,748.084106 
	C322.127869,760.601807 310.704285,768.151428 298.177490,770.114868 
	C290.176453,771.369019 282.801392,770.240540 275.157959,767.025879 
z"/>
<path fill="#FFFFFF" opacity="1.000000" stroke="none" 
	d="
M496.775024,770.998596 
	C474.652283,770.417053 460.815277,759.112671 457.346802,738.652954 
	C455.200928,725.994934 456.169830,712.711975 465.487549,702.074341 
	C471.218201,695.531921 478.703583,691.620789 487.174103,690.091431 
	C500.591187,687.668823 512.826111,690.325806 522.214539,700.826050 
	C531.539368,711.255066 534.360352,723.590088 532.293884,737.469666 
	C530.539124,749.255676 525.539001,758.940247 515.293091,764.863831 
	C509.894531,767.984924 503.289978,769.020020 496.775024,770.998596 
z"/>
<path fill="#FFFFFF" opacity="1.000000" stroke="none" 
	d="
M756.583191,719.771118 
	C750.857361,721.304504 745.531128,723.029053 740.068787,723.876038 
	C736.004150,724.506287 731.694641,724.435364 727.633423,723.794495 
	C725.906006,723.521790 723.292847,721.062622 723.208374,719.483521 
	C722.764526,711.182617 722.909119,702.843811 723.044434,694.521362 
	C723.100830,691.056458 724.416748,688.591919 728.686890,688.956604 
	C734.574585,689.459290 740.488647,689.650879 746.390381,689.993103 
	C763.696228,690.996460 766.443115,709.745178 756.583191,719.771118 
z"/>
<path fill="#FFFFFF" opacity="1.000000" stroke="none" 
	d="
M839.049072,745.000244 
	C835.445007,745.000244 832.331421,745.000244 828.696289,745.000244 
	C834.920227,727.445374 840.952087,710.432434 847.305054,692.513611 
	C853.715637,710.439453 859.799683,727.452087 866.075195,745.000244 
	C857.040649,745.000244 848.290161,745.000244 839.049072,745.000244 
z"/>
<path fill="#FFFFFF" opacity="1.000000" stroke="none" 
	d="
M937.000000,697.113281 
	C937.000244,689.002258 937.011169,688.747131 944.545593,689.070435 
	C952.366089,689.406067 960.411072,689.315125 967.907593,691.200745 
	C977.747559,693.675720 980.848694,701.739380 979.964783,712.944946 
	C979.323547,721.073730 971.747986,728.600220 963.636536,728.931885 
	C955.985657,729.244812 948.309998,728.901428 940.648987,729.044189 
	C937.252380,729.107483 936.945190,727.251465 936.969238,724.587769 
	C937.050415,715.591980 937.000061,706.594971 937.000000,697.113281 
z"/>
<path fill="#FFFFFF" opacity="1.000000" stroke="none" 
	d="
M67.610725,690.011902 
	C83.634041,694.417908 85.109406,712.157104 77.283821,722.735291 
	C74.806297,726.084290 69.156349,728.220703 64.707893,728.731262 
	C56.507397,729.672546 48.121693,729.000122 39.136696,729.000122 
	C38.759335,726.377686 38.096046,723.743286 38.052135,721.098633 
	C37.911373,712.621582 37.965717,704.140503 38.011765,695.661377 
	C38.042751,689.955322 39.015934,688.884399 44.531723,689.032532 
	C52.085968,689.235474 59.634064,689.667297 67.610725,690.011902 
z"/>
</svg>