<svg version="1.1" id="Layer_1" xmlns="http://www.w3.org/2000/svg" xmlns:xlink="http://www.w3.org/1999/xlink" x="0px" y="0px"
	 width="100%" viewBox="0 0 3569 1000" enable-background="new 0 0 3569 1000" xml:space="preserve">
<path fill="#9ABAA2" opacity="1.000000" stroke="none" 
	d="
M2301.000000,1001.000000 
	C1534.000000,1001.000000 767.500000,1001.000000 1.000000,1001.000000 
	C1.000000,667.666687 1.000000,334.333344 1.000000,1.000000 
	C1190.666626,1.000000 2380.333252,1.000000 3570.000000,1.000000 
	C3570.000000,334.333344 3570.000000,667.666687 3570.000000,1001.000000 
	C3147.166748,1001.000000 2724.333252,1001.000000 2301.000000,1001.000000 
M1536.643799,183.877838 
	C1465.855591,137.971573 1389.504517,129.431564 1310.760498,156.106415 
	C1195.510376,195.147812 1106.238647,321.881744 1152.543945,475.523346 
	C1188.072144,593.406677 1308.658936,666.915039 1431.869141,649.491150 
	C1500.281494,639.816650 1554.897583,606.734924 1597.252441,553.130249 
	C1647.285156,489.808380 1659.933350,417.423096 1644.138184,339.782562 
	C1630.605225,273.261841 1591.945801,223.008514 1536.643799,183.877838 
M1021.562439,460.804749 
	C1007.481079,432.822906 993.453430,404.813721 979.249756,376.894104 
	C977.484680,373.424469 977.440552,370.817261 979.475952,367.346771 
	C1019.517273,299.075928 1059.419189,230.723343 1099.339355,162.381546 
	C1101.993530,157.837799 1104.566162,153.246567 1107.257690,148.535568 
	C1097.586060,146.261002 1096.088013,146.862534 1091.750854,154.285355 
	C1043.247803,237.296692 994.742432,320.306732 946.229431,403.312256 
	C945.462952,404.623718 944.591858,405.874023 943.769592,407.152832 
	C943.403992,407.014191 943.038452,406.875549 942.672852,406.736908 
	C942.672852,320.635040 942.672852,234.533142 942.672852,148.162201 
	C928.855957,148.162201 915.527222,148.162201 901.377319,148.162201 
	C909.418274,163.345215 908.318909,179.132339 908.318115,194.782303 
	C908.310425,342.608032 908.311707,490.433777 908.328247,638.259521 
	C908.328491,640.696350 908.551880,643.133118 908.691711,645.991272 
	C917.844421,645.991272 926.492065,645.998779 935.139771,645.989075 
	C942.774597,645.980530 942.778381,645.972046 942.778503,638.559875 
	C942.779419,571.063354 942.774841,503.566833 942.798462,436.070312 
	C942.799194,433.922150 942.424500,431.417633 943.355408,429.687622 
	C947.432861,422.110596 951.927307,414.757904 956.747925,406.506592 
	C958.047974,408.890259 958.940125,410.420715 959.735535,411.999908 
	C978.998535,450.243561 998.739685,488.256348 1017.369629,526.806091 
	C1036.375610,566.133911 1059.724365,603.456116 1073.527954,645.597290 
	C1088.079224,645.597290 1103.279419,645.597290 1119.290161,645.597290 
	C1117.965088,643.621704 1117.049194,642.307312 1116.185059,640.959961 
	C1109.985596,631.293823 1102.948975,622.054260 1097.748047,611.876953 
	C1072.196899,561.877991 1047.134399,511.629364 1021.562439,460.804749 
M1988.622070,341.500061 
	C1988.622437,329.169037 1988.623291,316.838013 1988.623047,304.506989 
	C1988.622070,254.180252 1988.569702,203.853363 1988.707886,153.527008 
	C1988.720093,149.061859 1987.640503,147.367996 1982.911011,147.566788 
	C1974.260864,147.930405 1965.584229,147.669540 1956.918701,147.669159 
	C1953.998169,147.669037 1951.077759,147.669144 1947.080933,147.669144 
	C1957.174927,168.063446 1954.040161,188.831741 1954.066895,209.157150 
	C1954.255005,351.971527 1954.166748,494.786316 1954.167480,637.600952 
	C1954.167480,639.267334 1953.772583,641.080933 1954.306641,642.556274 
	C1954.785278,643.878479 1956.269653,645.769531 1957.349731,645.795898 
	C1967.488525,646.042603 1977.635620,645.942322 1988.231567,645.942322 
	C1988.376343,643.248596 1988.605225,640.966858 1988.605957,638.684998 
	C1988.625488,572.360352 1988.911133,506.033386 1988.383911,439.712921 
	C1988.275757,426.126404 1997.336426,417.990143 2002.543457,406.194794 
	C2004.034912,409.057251 2004.887695,410.646240 2005.698364,412.256348 
	C2029.075195,458.683075 2052.885254,504.898682 2075.666260,551.615845 
	C2090.728271,582.503418 2109.708496,611.659912 2118.801270,645.478760 
	C2133.808350,645.478760 2149.130859,645.478760 2165.165527,645.478760 
	C2163.661133,643.340759 2162.573486,641.892151 2161.587158,640.377441 
	C2155.773926,631.449036 2149.112793,622.947021 2144.324219,613.497070 
	C2104.338135,534.583984 2064.723389,455.482697 2024.867920,376.503143 
	C2023.123535,373.046448 2023.400879,370.617310 2025.286133,367.400238 
	C2064.540283,300.412964 2103.683594,233.360748 2142.841797,166.317261 
	C2146.267334,160.452118 2149.645020,154.558960 2153.102051,148.580093 
	C2143.935791,146.165573 2141.843262,146.949524 2137.666748,154.098557 
	C2089.341797,236.819366 2041.018921,319.541443 1992.684448,402.256683 
	C1991.820801,403.734680 1990.823608,405.134552 1989.888794,406.570892 
	C1989.466187,406.450653 1989.043701,406.330383 1988.621094,406.210144 
	C1988.621094,384.973450 1988.621094,363.736786 1988.622070,341.500061 
M2249.138428,162.505203 
	C2249.127197,158.673309 2249.329590,154.821396 2248.973145,151.021912 
	C2248.867920,149.898422 2247.200928,148.030716 2246.224609,148.014618 
	C2233.769287,147.809418 2221.309570,147.879349 2208.590576,147.879349 
	C2208.794678,149.086777 2208.771484,149.781830 2209.029053,150.349503 
	C2214.039307,161.388809 2215.021973,173.053299 2215.015869,185.013916 
	C2214.938721,335.505280 2214.966309,485.996643 2214.966553,636.488037 
	C2214.966553,638.321289 2215.089844,640.165405 2214.933105,641.985291 
	C2214.666748,645.076111 2216.036377,646.049072 2219.016602,645.992676 
	C2226.513428,645.850769 2234.015137,645.987915 2241.514404,645.936523 
	C2249.776123,645.879883 2249.126953,646.909180 2249.128906,638.526917 
	C2249.145996,573.197327 2249.251953,507.867279 2248.996826,442.538696 
	C2248.964355,434.221161 2250.177490,426.858856 2255.143555,420.059845 
	C2258.094238,416.019562 2260.332031,411.458496 2263.243652,406.534027 
	C2264.381592,408.552216 2264.990479,409.535614 2265.508789,410.564697 
	C2299.915283,478.864746 2334.432373,547.109558 2368.563965,615.546753 
	C2372.823242,624.087036 2375.248779,633.582397 2378.072021,642.774170 
	C2378.933594,645.580383 2380.246826,645.988464 2382.640381,645.978760 
	C2395.972900,645.924683 2409.305420,645.959229 2422.637939,645.927368 
	C2423.519287,645.925293 2424.400146,645.625000 2425.777100,645.372375 
	C2424.485840,643.540649 2423.496826,642.232483 2422.606934,640.860107 
	C2416.538574,631.502197 2409.593994,622.585571 2404.578857,612.691833 
	C2364.879395,534.369934 2325.583008,455.843903 2286.008789,377.458221 
	C2283.935303,373.350830 2284.174805,370.393860 2286.448242,366.516296 
	C2327.911133,295.796387 2369.233887,224.994049 2410.574951,154.202698 
	C2411.630371,152.395126 2412.561768,150.514954 2413.637695,148.506485 
	C2403.232178,146.637070 2402.621338,146.885330 2397.907715,154.952484 
	C2349.656982,237.531036 2301.412842,320.113647 2253.157471,402.689514 
	C2252.230225,404.276123 2251.187500,405.795135 2250.198730,407.345703 
	C2249.845459,407.183594 2249.492188,407.021454 2249.138916,406.859314 
	C2249.138916,325.740814 2249.138916,244.622345 2249.138428,162.505203 
M2520.144531,148.072433 
	C2520.043701,149.381729 2519.525146,150.830017 2519.907227,151.978775 
	C2523.567139,162.986420 2524.176758,174.254120 2522.316895,185.567200 
	C2518.642334,207.920746 2514.694092,230.230316 2510.723145,252.533951 
	C2487.684814,381.935608 2464.605957,511.330048 2441.561279,640.730591 
	C2441.286621,642.271118 2441.285156,643.860352 2441.160400,645.376648 
	C2451.341553,646.922180 2451.299072,646.914734 2452.915283,637.672668 
	C2457.563965,611.088684 2462.333008,584.525269 2466.831543,557.916077 
	C2467.499023,553.968140 2469.013916,552.751526 2472.955811,552.762146 
	C2517.451416,552.882324 2561.947510,552.870422 2606.443115,552.774170 
	C2610.075928,552.766296 2611.680420,553.773499 2612.344482,557.585693 
	C2615.747070,577.114075 2619.416260,596.596558 2623.079834,616.078674 
	C2624.750000,624.961304 2624.233887,633.643005 2621.348633,642.205139 
	C2621.001709,643.234131 2620.940186,644.359497 2620.729980,645.530762 
	C2636.739258,645.530762 2652.410889,645.530762 2667.137695,645.530762 
	C2664.085205,635.594238 2660.093262,625.979492 2658.214600,615.968140 
	C2636.614502,500.867035 2615.339355,385.704926 2593.968018,270.560852 
	C2587.705566,236.819916 2581.496582,203.068832 2575.093994,169.354507 
	C2572.559326,156.007294 2562.777344,147.960312 2549.515625,147.863373 
	C2540.017822,147.793930 2530.518799,147.888962 2520.144531,148.072433 
M1749.924438,294.478516 
	C1737.726074,256.409760 1725.564819,218.329056 1713.299438,180.281937 
	C1710.744263,172.356094 1709.780029,164.362228 1711.130737,156.140808 
	C1711.552246,153.575485 1712.253174,151.056107 1712.865234,148.342773 
	C1696.744873,148.342773 1681.107544,148.342773 1665.774780,148.342773 
	C1669.938599,158.870560 1674.551636,168.868011 1677.904785,179.271515 
	C1709.125000,276.136414 1740.150024,373.064301 1771.116577,470.010712 
	C1772.356689,473.893066 1772.982056,478.141479 1772.991699,482.221436 
	C1773.114502,534.373840 1773.072021,586.526733 1773.073120,638.679443 
	C1773.073120,640.178955 1772.748901,641.795044 1773.207764,643.141418 
	C1773.582764,644.241455 1774.888184,645.803345 1775.805664,645.820251 
	C1786.109863,646.010132 1796.419067,645.940369 1807.141113,645.940369 
	C1807.268677,643.236023 1807.470215,640.947388 1807.470947,638.658630 
	C1807.489014,585.672791 1807.443359,532.686829 1807.567505,479.701294 
	C1807.577026,475.619965 1808.225830,471.374268 1809.461304,467.485840 
	C1842.700928,362.873718 1876.056885,258.298523 1909.384155,153.714203 
	C1909.923462,152.021530 1910.346069,150.291626 1910.831177,148.550156 
	C1902.056885,146.787704 1901.313843,147.165726 1899.218140,153.745407 
	C1867.422729,253.575104 1835.619629,353.402344 1803.801270,453.224731 
	C1803.491577,454.196533 1802.953491,455.095520 1802.449707,456.184570 
	C1801.912476,455.584717 1801.586182,455.378754 1801.495728,455.097076 
	C1784.372070,401.816040 1767.265015,348.529633 1749.924438,294.478516 
M1797.078247,870.815369 
	C1778.158691,871.284912 1764.723267,863.749634 1758.332520,849.082520 
	C1754.776489,840.921143 1754.109619,832.359741 1754.798096,823.607666 
	C1756.158813,806.308716 1766.018921,793.379700 1781.300293,789.133240 
	C1795.782593,785.108826 1815.025635,787.772949 1824.941162,803.911072 
	C1825.377075,804.620300 1825.654175,805.427185 1825.981201,806.136230 
	C1830.545044,803.620117 1834.133057,801.641968 1838.033325,799.491577 
	C1836.867432,797.625183 1836.110107,796.151672 1835.115967,794.860352 
	C1821.065796,776.613403 1802.003906,772.097656 1780.622314,776.365234 
	C1759.263916,780.628235 1746.723145,794.713562 1742.319336,815.704895 
	C1740.905396,822.444336 1740.632324,829.692200 1741.330566,836.555542 
	C1743.463867,857.525452 1753.759888,872.868164 1774.229370,880.110596 
	C1791.144165,886.095215 1816.984375,884.771667 1829.485474,865.428223 
	C1829.675049,865.134827 1830.295166,865.119629 1831.141479,864.827026 
	C1831.141479,868.932678 1831.383057,872.758362 1831.076782,876.539612 
	C1830.741455,880.677917 1832.202515,882.095398 1836.395630,881.962280 
	C1840.185181,881.841980 1842.547729,881.723206 1842.438354,876.738770 
	C1842.117065,862.084656 1842.336670,847.418823 1842.311035,832.757629 
	C1842.308472,831.312012 1842.074951,829.866821 1841.934814,828.263794 
	C1825.785645,828.263794 1810.022583,828.263794 1793.848755,828.263794 
	C1793.734131,830.307312 1793.744019,832.116211 1793.510742,833.893127 
	C1792.953979,838.133118 1794.399902,839.864014 1798.977051,839.641968 
	C1806.456543,839.279053 1813.967041,839.512817 1821.463867,839.566833 
	C1823.846924,839.584045 1826.228394,839.830261 1828.613403,839.971863 
	C1827.160400,857.395935 1816.745605,867.631714 1797.078247,870.815369 
M1612.846436,847.638977 
	C1620.651123,871.419312 1639.860596,884.157288 1666.247803,883.049866 
	C1689.630249,882.068542 1708.173096,866.933472 1713.226562,843.941162 
	C1714.672363,837.363037 1715.078979,830.363281 1714.735474,823.619324 
	C1713.389771,797.191284 1694.025391,777.224670 1668.330933,775.156799 
	C1639.770142,772.858337 1617.775024,788.174194 1611.712158,814.746094 
	C1609.260254,825.492493 1609.566162,836.239197 1612.846436,847.638977 
M1421.548828,867.948303 
	C1437.589722,883.233032 1456.575562,886.602783 1477.159180,880.411499 
	C1499.999390,873.541382 1512.652222,853.713806 1511.929688,826.898010 
	C1511.384033,806.643738 1503.522217,790.055359 1484.662598,780.841614 
	C1465.189575,771.328186 1445.672852,772.424255 1427.767090,784.903625 
	C1403.086792,802.104492 1399.946411,843.879761 1421.548828,867.948303 
M2273.914062,787.528076 
	C2273.914062,786.195129 2273.914307,784.862122 2273.913818,783.529175 
	C2273.910400,776.043579 2273.910400,776.043579 2266.330566,776.064148 
	C2266.164062,776.064575 2265.993408,776.087341 2265.831299,776.060730 
	C2261.427002,775.338440 2260.094482,777.176270 2260.197021,781.585632 
	C2260.476318,793.574707 2260.191895,805.576050 2260.346436,817.569641 
	C2260.393066,821.193115 2259.229492,822.580566 2255.488770,822.541260 
	C2240.995605,822.388855 2226.499023,822.387451 2212.005859,822.544495 
	C2208.341797,822.584167 2207.100586,821.517822 2207.186768,817.700439 
	C2207.445557,806.210205 2207.310791,794.710754 2207.285645,783.215027 
	C2207.280762,780.958801 2207.078369,778.703003 2206.965088,776.403931 
	C2202.333252,776.403931 2198.251953,776.403931 2193.542725,776.403931 
	C2193.542725,778.700012 2193.542969,780.664001 2193.542969,782.628052 
	C2193.542969,802.954102 2193.541748,823.280090 2193.542236,843.606140 
	C2193.542725,854.768799 2193.448975,865.933289 2193.661621,877.091919 
	C2193.689941,878.596313 2195.090576,881.187927 2196.156494,881.354797 
	C2199.645508,881.901001 2203.273682,881.559753 2207.295410,881.559753 
	C2207.295410,878.853760 2207.295166,877.048035 2207.295410,875.242249 
	C2207.296875,863.579773 2207.429688,851.915039 2207.228516,840.256042 
	C2207.158447,836.202271 2208.397705,834.678528 2212.608398,834.739197 
	C2226.767090,834.942993 2240.932617,834.963196 2255.090332,834.727905 
	C2259.385986,834.656494 2260.438721,836.232544 2260.364014,840.236206 
	C2260.150391,851.728088 2260.289062,863.226562 2260.293701,874.722412 
	C2260.296387,881.621765 2260.299805,881.621765 2266.985596,881.623962 
	C2273.911377,881.626282 2273.913330,881.626282 2273.913574,874.487488 
	C2273.914307,845.831116 2273.913818,817.174744 2273.914062,787.528076 
M1932.574707,829.136902 
	C1942.712524,821.628235 1946.662964,810.456238 1943.453003,797.739380 
	C1940.393188,785.617676 1932.523071,777.810120 1920.189209,776.880066 
	C1906.311646,775.833496 1892.294312,776.639221 1877.867920,776.639221 
	C1877.771240,778.632568 1877.580322,780.750977 1877.578979,782.869507 
	C1877.559570,812.854980 1877.511841,842.840637 1877.597290,872.825867 
	C1877.624512,882.346558 1875.712769,881.509644 1886.866821,881.656433 
	C1890.136719,881.699402 1891.187500,880.488342 1891.143433,877.261658 
	C1890.993164,866.269043 1891.091309,855.273071 1891.088379,844.278381 
	C1891.085693,833.971741 1891.089966,834.213562 1901.319824,833.875854 
	C1905.937256,833.723389 1908.484741,835.265442 1910.687744,839.318542 
	C1917.685303,852.193237 1925.063232,864.863037 1932.432373,877.531616 
	C1933.350220,879.109436 1934.980103,881.154541 1936.484131,881.341492 
	C1940.682617,881.863403 1944.988403,881.522949 1950.402344,881.522949 
	C1940.382080,865.053589 1930.951172,849.552856 1921.535645,834.077271 
	C1925.577637,832.311340 1928.768311,830.917297 1932.574707,829.136902 
M1307.879272,854.500427 
	C1307.879517,849.667603 1308.061279,844.825684 1307.821655,840.004822 
	C1307.635620,836.265198 1308.644043,834.666382 1312.782715,834.730835 
	C1327.277832,834.956482 1341.779785,834.925781 1356.276367,834.749939 
	C1360.004639,834.704773 1361.167236,835.898010 1361.108276,839.612366 
	C1360.912720,851.941406 1361.013916,864.275635 1361.066162,876.607544 
	C1361.072266,878.047729 1361.332153,880.688416 1361.730469,880.738525 
	C1365.469238,881.209106 1369.299805,881.551147 1373.011353,881.124756 
	C1373.747314,881.040161 1374.537598,877.516602 1374.543823,875.576599 
	C1374.639771,845.246399 1374.637329,814.915833 1374.596069,784.585449 
	C1374.582764,774.829041 1375.606934,776.346069 1366.076050,775.994080 
	C1362.172852,775.849915 1360.875732,777.057739 1360.952393,781.050781 
	C1361.186279,793.211792 1360.929810,805.381592 1361.098389,817.544739 
	C1361.148193,821.144775 1360.136841,822.591675 1356.320068,822.547424 
	C1341.823364,822.379211 1327.322021,822.361816 1312.825928,822.558289 
	C1308.732422,822.613770 1307.757812,821.006470 1307.815430,817.240967 
	C1307.996704,805.411560 1307.523682,793.562256 1308.029053,781.751709 
	C1308.287720,775.706543 1305.096069,776.021423 1301.000610,775.990601 
	C1296.826416,775.959290 1293.951050,775.836426 1294.016113,781.795837 
	C1294.344971,811.955994 1294.169312,842.121765 1294.172363,872.285522 
	C1294.173340,882.193665 1294.171631,882.083984 1303.921509,881.677979 
	C1306.952271,881.551819 1307.988403,880.483093 1307.928589,877.497070 
	C1307.781372,870.167358 1307.879517,862.832825 1307.879272,854.500427 
M2045.772461,873.862122 
	C2048.699463,882.119141 2052.799316,883.836426 2062.156982,880.572510 
	C2061.765137,879.334351 2061.420410,878.069580 2060.968994,876.844116 
	C2049.756104,846.398071 2038.543701,815.951599 2027.302124,785.515991 
	C2023.796387,776.024231 2023.750366,776.275940 2013.416138,775.949219 
	C2008.977173,775.808899 2007.075195,777.350891 2005.585571,781.463318 
	C1994.140259,813.064026 1982.434448,844.570374 1970.823120,876.110962 
	C1970.267822,877.619080 1969.840576,879.174316 1969.063965,881.620972 
	C1972.255615,881.620972 1974.879761,881.370300 1977.436768,881.677368 
	C1981.664917,882.185364 1983.747681,880.477356 1984.919800,876.417053 
	C1986.532104,870.832275 1988.488892,865.307739 1990.845581,860.000488 
	C1991.571777,858.365051 1994.065430,856.517334 1995.787354,856.479675 
	C2009.096191,856.189148 2022.416992,856.188171 2035.725830,856.480042 
	C2037.434448,856.517517 2039.838623,858.394409 2040.632080,860.040405 
	C2042.644165,864.213989 2043.923584,868.740723 2045.772461,873.862122 
M2141.003418,777.374573 
	C2124.761719,776.738403 2108.519775,776.102234 2091.843994,775.449097 
	C2091.667725,778.489685 2091.457031,780.441284 2091.455811,782.393005 
	C2091.434570,813.372925 2091.439209,844.352905 2091.441895,875.332825 
	C2091.441895,876.498474 2091.121094,877.835999 2091.583496,878.784729 
	C2092.121582,879.889282 2093.291260,881.340942 2094.304199,881.439636 
	C2097.697266,881.770447 2101.142578,881.565186 2105.008057,881.565186 
	C2105.008057,868.905457 2105.102539,857.099426 2104.948975,845.296692 
	C2104.904541,841.876465 2105.980225,840.533142 2109.503906,840.619873 
	C2116.827637,840.800232 2124.162354,840.784912 2131.487305,840.615356 
	C2148.053223,840.231995 2159.908203,830.111572 2162.488281,814.332092 
	C2165.208740,797.695496 2157.170166,783.467041 2141.003418,777.374573 
M1205.023926,871.455200 
	C1205.026245,862.632263 1205.130859,853.807617 1204.977417,844.987366 
	C1204.920654,841.728455 1206.109985,840.581970 1209.331909,840.629517 
	C1217.319824,840.747375 1225.328491,840.940002 1233.298096,840.518982 
	C1251.492310,839.557861 1263.396118,825.947754 1262.914795,807.101013 
	C1262.458130,789.224121 1249.527832,776.287781 1231.740234,776.097595 
	C1219.922241,775.971252 1208.101685,776.054810 1196.282349,776.083862 
	C1194.856934,776.087341 1193.432007,776.337524 1191.469360,776.524597 
	C1191.469360,778.859558 1191.469360,780.823364 1191.469360,782.787170 
	C1191.469360,806.592407 1191.468872,830.397583 1191.469604,854.202820 
	C1191.469849,861.860413 1191.332275,869.522888 1191.596069,877.171448 
	C1191.647461,878.661072 1193.085449,881.171753 1194.192505,881.355835 
	C1197.540649,881.912537 1201.040405,881.557129 1205.023926,881.557129 
	C1205.023926,878.024353 1205.023926,875.229309 1205.023926,871.455200 
M2349.763184,872.424988 
	C2349.761475,860.099304 2349.628174,847.771179 2349.862061,835.449890 
	C2349.912598,832.792725 2350.753174,829.832336 2352.140625,827.570068 
	C2361.630127,812.097229 2371.368408,796.777039 2381.006836,781.395386 
	C2381.933594,779.916443 2382.727295,778.354126 2384.012939,776.064270 
	C2380.429199,776.064270 2377.769287,776.328247 2375.182373,776.006104 
	C2370.619385,775.438171 2367.967529,777.235046 2365.675293,781.241943 
	C2359.392578,792.224121 2352.644043,802.940002 2346.055664,813.746582 
	C2345.147949,815.235779 2344.103516,816.641724 2342.780029,818.590027 
	C2341.283447,816.252869 2340.185791,814.611206 2339.160645,812.925659 
	C2332.410156,801.828064 2325.706543,790.701843 2318.894287,779.642212 
	C2318.073975,778.310181 2316.777588,776.445435 2315.561523,776.331848 
	C2311.234863,775.927673 2306.847656,776.173950 2301.567627,776.173950 
	C2303.177002,778.897644 2304.136963,780.612061 2305.180176,782.273865 
	C2314.568115,797.222900 2324.080322,812.095825 2333.266357,827.167847 
	C2334.889648,829.831482 2335.879639,833.299072 2335.946045,836.421265 
	C2336.232422,849.906738 2336.008301,863.402405 2336.147949,876.892456 
	C2336.163574,878.416687 2337.183594,881.161438 2337.946045,881.237000 
	C2341.527832,881.591858 2345.364746,881.793213 2348.701172,880.745483 
	C2349.724121,880.424194 2349.447021,875.961609 2349.763184,872.424988 
M1531.791016,776.061829 
	C1525.164185,775.565613 1527.869385,780.604614 1527.347290,783.653564 
	C1526.727783,787.272400 1528.210815,788.752258 1532.030029,788.569580 
	C1537.676514,788.299561 1543.354736,788.699158 1549.001953,788.436829 
	C1553.133423,788.244995 1554.488281,789.755554 1554.440796,793.882812 
	C1554.255371,810.026611 1554.362793,826.173828 1554.362915,842.319763 
	C1554.362915,853.971436 1554.269775,865.624939 1554.487793,877.272583 
	C1554.514893,878.724365 1556.022217,881.198303 1557.142578,881.382629 
	C1560.487305,881.933044 1563.980835,881.580261 1567.941895,881.580261 
	C1567.941895,878.819336 1567.941895,876.854919 1567.941895,874.890503 
	C1567.941895,848.258057 1567.937012,821.625549 1567.945068,794.993103 
	C1567.947144,788.527100 1567.966553,788.516785 1574.630859,788.503418 
	C1581.242798,788.490112 1587.854736,788.500488 1594.938721,788.500488 
	C1594.938721,786.091125 1594.933838,784.451355 1594.939575,782.811584 
	C1594.963135,776.068481 1594.964355,776.062500 1588.159302,776.061340 
	C1569.682983,776.058044 1551.206787,776.060364 1531.791016,776.061829 
z"/>
<path fill="#FEFEFE" opacity="1.000000" stroke="none" 
	d="
M1536.941650,184.079498 
	C1591.945801,223.008514 1630.605225,273.261841 1644.138184,339.782562 
	C1659.933350,417.423096 1647.285156,489.808380 1597.252441,553.130249 
	C1554.897583,606.734924 1500.281494,639.816650 1431.869141,649.491150 
	C1308.658936,666.915039 1188.072144,593.406677 1152.543945,475.523346 
	C1106.238647,321.881744 1195.510376,195.147812 1310.760498,156.106415 
	C1389.504517,129.431564 1465.855591,137.971573 1536.941650,184.079498 
M1594.054321,293.565063 
	C1587.071167,279.759949 1580.933594,265.442444 1572.938599,252.250549 
	C1553.006104,219.362030 1527.473267,191.730118 1492.604126,174.235214 
	C1442.513062,149.102936 1389.926758,146.322144 1336.336548,159.666794 
	C1288.656982,171.539612 1252.986816,200.655716 1225.416382,240.580582 
	C1188.402954,294.179810 1174.326416,353.748718 1178.592651,418.219910 
	C1181.718750,465.459900 1196.009521,508.922974 1222.196655,548.413269 
	C1243.994019,581.284058 1271.268555,607.988403 1307.827026,624.176270 
	C1344.305664,640.328796 1382.578125,644.060425 1421.826782,640.130005 
	C1474.198120,634.885437 1518.263672,612.873962 1551.177734,571.628662 
	C1618.206055,487.634125 1628.930664,394.353729 1594.054321,293.565063 
z"/>
<path fill="#FDFEFD" opacity="1.000000" stroke="none" 
	d="
M1021.730835,461.136841 
	C1047.134399,511.629364 1072.196899,561.877991 1097.748047,611.876953 
	C1102.948975,622.054260 1109.985596,631.293823 1116.185059,640.959961 
	C1117.049194,642.307312 1117.965088,643.621704 1119.290161,645.597290 
	C1103.279419,645.597290 1088.079224,645.597290 1073.527954,645.597290 
	C1059.724365,603.456116 1036.375610,566.133911 1017.369629,526.806091 
	C998.739685,488.256348 978.998535,450.243561 959.735535,411.999908 
	C958.940125,410.420715 958.047974,408.890259 956.747925,406.506592 
	C951.927307,414.757904 947.432861,422.110596 943.355408,429.687622 
	C942.424500,431.417633 942.799194,433.922150 942.798462,436.070312 
	C942.774841,503.566833 942.779419,571.063354 942.778503,638.559875 
	C942.778381,645.972046 942.774597,645.980530 935.139771,645.989075 
	C926.492065,645.998779 917.844421,645.991272 908.691711,645.991272 
	C908.551880,643.133118 908.328491,640.696350 908.328247,638.259521 
	C908.311707,490.433777 908.310425,342.608032 908.318115,194.782303 
	C908.318909,179.132339 909.418274,163.345215 901.377319,148.162201 
	C915.527222,148.162201 928.855957,148.162201 942.672852,148.162201 
	C942.672852,234.533142 942.672852,320.635040 942.672852,406.736908 
	C943.038452,406.875549 943.403992,407.014191 943.769592,407.152832 
	C944.591858,405.874023 945.462952,404.623718 946.229431,403.312256 
	C994.742432,320.306732 1043.247803,237.296692 1091.750854,154.285355 
	C1096.088013,146.862534 1097.586060,146.261002 1107.257690,148.535568 
	C1104.566162,153.246567 1101.993530,157.837799 1099.339355,162.381546 
	C1059.419189,230.723343 1019.517273,299.075928 979.475952,367.346771 
	C977.440552,370.817261 977.484680,373.424469 979.249756,376.894104 
	C993.453430,404.813721 1007.481079,432.822906 1021.730835,461.136841 
z"/>
<path fill="#FDFEFD" opacity="1.000000" stroke="none" 
	d="
M1988.621582,342.000061 
	C1988.621094,363.736786 1988.621094,384.973450 1988.621094,406.210144 
	C1989.043701,406.330383 1989.466187,406.450653 1989.888794,406.570892 
	C1990.823608,405.134552 1991.820801,403.734680 1992.684448,402.256683 
	C2041.018921,319.541443 2089.341797,236.819366 2137.666748,154.098557 
	C2141.843262,146.949524 2143.935791,146.165573 2153.102051,148.580093 
	C2149.645020,154.558960 2146.267334,160.452118 2142.841797,166.317261 
	C2103.683594,233.360748 2064.540283,300.412964 2025.286133,367.400238 
	C2023.400879,370.617310 2023.123535,373.046448 2024.867920,376.503143 
	C2064.723389,455.482697 2104.338135,534.583984 2144.324219,613.497070 
	C2149.112793,622.947021 2155.773926,631.449036 2161.587158,640.377441 
	C2162.573486,641.892151 2163.661133,643.340759 2165.165527,645.478760 
	C2149.130859,645.478760 2133.808350,645.478760 2118.801270,645.478760 
	C2109.708496,611.659912 2090.728271,582.503418 2075.666260,551.615845 
	C2052.885254,504.898682 2029.075195,458.683075 2005.698364,412.256348 
	C2004.887695,410.646240 2004.034912,409.057251 2002.543457,406.194794 
	C1997.336426,417.990143 1988.275757,426.126404 1988.383911,439.712921 
	C1988.911133,506.033386 1988.625488,572.360352 1988.605957,638.684998 
	C1988.605225,640.966858 1988.376343,643.248596 1988.231567,645.942322 
	C1977.635620,645.942322 1967.488525,646.042603 1957.349731,645.795898 
	C1956.269653,645.769531 1954.785278,643.878479 1954.306641,642.556274 
	C1953.772583,641.080933 1954.167480,639.267334 1954.167480,637.600952 
	C1954.166748,494.786316 1954.255005,351.971527 1954.066895,209.157150 
	C1954.040161,188.831741 1957.174927,168.063446 1947.080933,147.669144 
	C1951.077759,147.669144 1953.998169,147.669037 1956.918701,147.669159 
	C1965.584229,147.669540 1974.260864,147.930405 1982.911011,147.566788 
	C1987.640503,147.367996 1988.720093,149.061859 1988.707886,153.527008 
	C1988.569702,203.853363 1988.622070,254.180252 1988.623047,304.506989 
	C1988.623291,316.838013 1988.622437,329.169037 1988.621582,342.000061 
z"/>
<path fill="#FEFEFE" opacity="1.000000" stroke="none" 
	d="
M2249.138672,163.004547 
	C2249.138916,244.622345 2249.138916,325.740814 2249.138916,406.859314 
	C2249.492188,407.021454 2249.845459,407.183594 2250.198730,407.345703 
	C2251.187500,405.795135 2252.230225,404.276123 2253.157471,402.689514 
	C2301.412842,320.113647 2349.656982,237.531036 2397.907715,154.952484 
	C2402.621338,146.885330 2403.232178,146.637070 2413.637695,148.506485 
	C2412.561768,150.514954 2411.630371,152.395126 2410.574951,154.202698 
	C2369.233887,224.994049 2327.911133,295.796387 2286.448242,366.516296 
	C2284.174805,370.393860 2283.935303,373.350830 2286.008789,377.458221 
	C2325.583008,455.843903 2364.879395,534.369934 2404.578857,612.691833 
	C2409.593994,622.585571 2416.538574,631.502197 2422.606934,640.860107 
	C2423.496826,642.232483 2424.485840,643.540649 2425.777100,645.372375 
	C2424.400146,645.625000 2423.519287,645.925293 2422.637939,645.927368 
	C2409.305420,645.959229 2395.972900,645.924683 2382.640381,645.978760 
	C2380.246826,645.988464 2378.933594,645.580383 2378.072021,642.774170 
	C2375.248779,633.582397 2372.823242,624.087036 2368.563965,615.546753 
	C2334.432373,547.109558 2299.915283,478.864746 2265.508789,410.564697 
	C2264.990479,409.535614 2264.381592,408.552216 2263.243652,406.534027 
	C2260.332031,411.458496 2258.094238,416.019562 2255.143555,420.059845 
	C2250.177490,426.858856 2248.964355,434.221161 2248.996826,442.538696 
	C2249.251953,507.867279 2249.145996,573.197327 2249.128906,638.526917 
	C2249.126953,646.909180 2249.776123,645.879883 2241.514404,645.936523 
	C2234.015137,645.987915 2226.513428,645.850769 2219.016602,645.992676 
	C2216.036377,646.049072 2214.666748,645.076111 2214.933105,641.985291 
	C2215.089844,640.165405 2214.966553,638.321289 2214.966553,636.488037 
	C2214.966309,485.996643 2214.938721,335.505280 2215.015869,185.013916 
	C2215.021973,173.053299 2214.039307,161.388809 2209.029053,150.349503 
	C2208.771484,149.781830 2208.794678,149.086777 2208.590576,147.879349 
	C2221.309570,147.879349 2233.769287,147.809418 2246.224609,148.014618 
	C2247.200928,148.030716 2248.867920,149.898422 2248.973145,151.021912 
	C2249.329590,154.821396 2249.127197,158.673309 2249.138672,163.004547 
z"/>
<path fill="#FDFEFE" opacity="1.000000" stroke="none" 
	d="
M2520.582520,147.991516 
	C2530.518799,147.888962 2540.017822,147.793930 2549.515625,147.863373 
	C2562.777344,147.960312 2572.559326,156.007294 2575.093994,169.354507 
	C2581.496582,203.068832 2587.705566,236.819916 2593.968018,270.560852 
	C2615.339355,385.704926 2636.614502,500.867035 2658.214600,615.968140 
	C2660.093262,625.979492 2664.085205,635.594238 2667.137695,645.530762 
	C2652.410889,645.530762 2636.739258,645.530762 2620.729980,645.530762 
	C2620.940186,644.359497 2621.001709,643.234131 2621.348633,642.205139 
	C2624.233887,633.643005 2624.750000,624.961304 2623.079834,616.078674 
	C2619.416260,596.596558 2615.747070,577.114075 2612.344482,557.585693 
	C2611.680420,553.773499 2610.075928,552.766296 2606.443115,552.774170 
	C2561.947510,552.870422 2517.451416,552.882324 2472.955811,552.762146 
	C2469.013916,552.751526 2467.499023,553.968140 2466.831543,557.916077 
	C2462.333008,584.525269 2457.563965,611.088684 2452.915283,637.672668 
	C2451.299072,646.914734 2451.341553,646.922180 2441.160400,645.376648 
	C2441.285156,643.860352 2441.286621,642.271118 2441.561279,640.730591 
	C2464.605957,511.330048 2487.684814,381.935608 2510.723145,252.533951 
	C2514.694092,230.230316 2518.642334,207.920746 2522.316895,185.567200 
	C2524.176758,174.254120 2523.567139,162.986420 2519.907227,151.978775 
	C2519.525146,150.830017 2520.043701,149.381729 2520.582520,147.991516 
M2473.247803,523.831604 
	C2472.220459,529.868103 2471.193359,535.904602 2470.085693,542.413696 
	C2516.566895,542.413696 2562.556885,542.413696 2609.225098,542.413696 
	C2585.734619,415.223083 2562.331055,288.502991 2538.927490,161.782867 
	C2538.442627,161.783493 2537.957764,161.784119 2537.472900,161.784729 
	C2516.125488,282.185211 2494.778076,402.585693 2473.247803,523.831604 
z"/>
<path fill="#FEFEFE" opacity="1.000000" stroke="none" 
	d="
M1750.040894,294.860962 
	C1767.265015,348.529633 1784.372070,401.816040 1801.495728,455.097076 
	C1801.586182,455.378754 1801.912476,455.584717 1802.449707,456.184570 
	C1802.953491,455.095520 1803.491577,454.196533 1803.801270,453.224731 
	C1835.619629,353.402344 1867.422729,253.575104 1899.218140,153.745407 
	C1901.313843,147.165726 1902.056885,146.787704 1910.831177,148.550156 
	C1910.346069,150.291626 1909.923462,152.021530 1909.384155,153.714203 
	C1876.056885,258.298523 1842.700928,362.873718 1809.461304,467.485840 
	C1808.225830,471.374268 1807.577026,475.619965 1807.567505,479.701294 
	C1807.443359,532.686829 1807.489014,585.672791 1807.470947,638.658630 
	C1807.470215,640.947388 1807.268677,643.236023 1807.141113,645.940369 
	C1796.419067,645.940369 1786.109863,646.010132 1775.805664,645.820251 
	C1774.888184,645.803345 1773.582764,644.241455 1773.207764,643.141418 
	C1772.748901,641.795044 1773.073120,640.178955 1773.073120,638.679443 
	C1773.072021,586.526733 1773.114502,534.373840 1772.991699,482.221436 
	C1772.982056,478.141479 1772.356689,473.893066 1771.116577,470.010712 
	C1740.150024,373.064301 1709.125000,276.136414 1677.904785,179.271515 
	C1674.551636,168.868011 1669.938599,158.870560 1665.774780,148.342773 
	C1681.107544,148.342773 1696.744873,148.342773 1712.865234,148.342773 
	C1712.253174,151.056107 1711.552246,153.575485 1711.130737,156.140808 
	C1709.780029,164.362228 1710.744263,172.356094 1713.299438,180.281937 
	C1725.564819,218.329056 1737.726074,256.409760 1750.040894,294.860962 
z"/>
<path fill="#FDFEFD" opacity="1.000000" stroke="none" 
	d="
M1797.513672,870.772583 
	C1816.745605,867.631714 1827.160400,857.395935 1828.613403,839.971863 
	C1826.228394,839.830261 1823.846924,839.584045 1821.463867,839.566833 
	C1813.967041,839.512817 1806.456543,839.279053 1798.977051,839.641968 
	C1794.399902,839.864014 1792.953979,838.133118 1793.510742,833.893127 
	C1793.744019,832.116211 1793.734131,830.307312 1793.848755,828.263794 
	C1810.022583,828.263794 1825.785645,828.263794 1841.934814,828.263794 
	C1842.074951,829.866821 1842.308472,831.312012 1842.311035,832.757629 
	C1842.336670,847.418823 1842.117065,862.084656 1842.438354,876.738770 
	C1842.547729,881.723206 1840.185181,881.841980 1836.395630,881.962280 
	C1832.202515,882.095398 1830.741455,880.677917 1831.076782,876.539612 
	C1831.383057,872.758362 1831.141479,868.932678 1831.141479,864.827026 
	C1830.295166,865.119629 1829.675049,865.134827 1829.485474,865.428223 
	C1816.984375,884.771667 1791.144165,886.095215 1774.229370,880.110596 
	C1753.759888,872.868164 1743.463867,857.525452 1741.330566,836.555542 
	C1740.632324,829.692200 1740.905396,822.444336 1742.319336,815.704895 
	C1746.723145,794.713562 1759.263916,780.628235 1780.622314,776.365234 
	C1802.003906,772.097656 1821.065796,776.613403 1835.115967,794.860352 
	C1836.110107,796.151672 1836.867432,797.625183 1838.033325,799.491577 
	C1834.133057,801.641968 1830.545044,803.620117 1825.981201,806.136230 
	C1825.654175,805.427185 1825.377075,804.620300 1824.941162,803.911072 
	C1815.025635,787.772949 1795.782593,785.108826 1781.300293,789.133240 
	C1766.018921,793.379700 1756.158813,806.308716 1754.798096,823.607666 
	C1754.109619,832.359741 1754.776489,840.921143 1758.332520,849.082520 
	C1764.723267,863.749634 1778.158691,871.284912 1797.513672,870.772583 
z"/>
<path fill="#FCFDFC" opacity="1.000000" stroke="none" 
	d="
M1612.734009,847.253906 
	C1609.566162,836.239197 1609.260254,825.492493 1611.712158,814.746094 
	C1617.775024,788.174194 1639.770142,772.858337 1668.330933,775.156799 
	C1694.025391,777.224670 1713.389771,797.191284 1714.735474,823.619324 
	C1715.078979,830.363281 1714.672363,837.363037 1713.226562,843.941162 
	C1708.173096,866.933472 1689.630249,882.068542 1666.247803,883.049866 
	C1639.860596,884.157288 1620.651123,871.419312 1612.734009,847.253906 
M1644.600098,791.888428 
	C1628.010864,800.390015 1623.166748,814.961914 1623.815674,832.301086 
	C1624.789795,858.323608 1646.283447,874.958679 1671.782837,869.492798 
	C1690.416870,865.498474 1701.374878,850.420471 1701.339478,828.823242 
	C1701.287720,797.270935 1674.442017,779.426575 1644.600098,791.888428 
z"/>
<path fill="#FCFDFC" opacity="1.000000" stroke="none" 
	d="
M1421.300293,867.697510 
	C1399.946411,843.879761 1403.086792,802.104492 1427.767090,784.903625 
	C1445.672852,772.424255 1465.189575,771.328186 1484.662598,780.841614 
	C1503.522217,790.055359 1511.384033,806.643738 1511.929688,826.898010 
	C1512.652222,853.713806 1499.999390,873.541382 1477.159180,880.411499 
	C1456.575562,886.602783 1437.589722,883.233032 1421.300293,867.697510 
M1476.148560,791.142395 
	C1460.990356,785.484131 1446.527954,786.509766 1433.875366,797.042603 
	C1422.004517,806.924438 1419.792969,820.650330 1421.047119,835.162903 
	C1422.688843,854.160706 1436.247192,868.260071 1454.283325,870.052185 
	C1474.655762,872.076477 1491.095581,862.074158 1496.393677,844.220398 
	C1499.096558,835.111633 1499.212524,825.812805 1497.014648,816.590881 
	C1494.274170,805.092651 1487.744507,796.485046 1476.148560,791.142395 
z"/>
<path fill="#FCFDFC" opacity="1.000000" stroke="none" 
	d="
M2273.914062,788.023193 
	C2273.913818,817.174744 2273.914307,845.831116 2273.913574,874.487488 
	C2273.913330,881.626282 2273.911377,881.626282 2266.985596,881.623962 
	C2260.299805,881.621765 2260.296387,881.621765 2260.293701,874.722412 
	C2260.289062,863.226562 2260.150391,851.728088 2260.364014,840.236206 
	C2260.438721,836.232544 2259.385986,834.656494 2255.090332,834.727905 
	C2240.932617,834.963196 2226.767090,834.942993 2212.608398,834.739197 
	C2208.397705,834.678528 2207.158447,836.202271 2207.228516,840.256042 
	C2207.429688,851.915039 2207.296875,863.579773 2207.295410,875.242249 
	C2207.295166,877.048035 2207.295410,878.853760 2207.295410,881.559753 
	C2203.273682,881.559753 2199.645508,881.901001 2196.156494,881.354797 
	C2195.090576,881.187927 2193.689941,878.596313 2193.661621,877.091919 
	C2193.448975,865.933289 2193.542725,854.768799 2193.542236,843.606140 
	C2193.541748,823.280090 2193.542969,802.954102 2193.542969,782.628052 
	C2193.542969,780.664001 2193.542725,778.700012 2193.542725,776.403931 
	C2198.251953,776.403931 2202.333252,776.403931 2206.965088,776.403931 
	C2207.078369,778.703003 2207.280762,780.958801 2207.285645,783.215027 
	C2207.310791,794.710754 2207.445557,806.210205 2207.186768,817.700439 
	C2207.100586,821.517822 2208.341797,822.584167 2212.005859,822.544495 
	C2226.499023,822.387451 2240.995605,822.388855 2255.488770,822.541260 
	C2259.229492,822.580566 2260.393066,821.193115 2260.346436,817.569641 
	C2260.191895,805.576050 2260.476318,793.574707 2260.197021,781.585632 
	C2260.094482,777.176270 2261.427002,775.338440 2265.831299,776.060730 
	C2265.993408,776.087341 2266.164062,776.064575 2266.330566,776.064148 
	C2273.910400,776.043579 2273.910400,776.043579 2273.913818,783.529175 
	C2273.914307,784.862122 2273.914062,786.195129 2273.914062,788.023193 
z"/>
<path fill="#FDFEFD" opacity="1.000000" stroke="none" 
	d="
M1932.266846,829.330078 
	C1928.768311,830.917297 1925.577637,832.311340 1921.535645,834.077271 
	C1930.951172,849.552856 1940.382080,865.053589 1950.402344,881.522949 
	C1944.988403,881.522949 1940.682617,881.863403 1936.484131,881.341492 
	C1934.980103,881.154541 1933.350220,879.109436 1932.432373,877.531616 
	C1925.063232,864.863037 1917.685303,852.193237 1910.687744,839.318542 
	C1908.484741,835.265442 1905.937256,833.723389 1901.319824,833.875854 
	C1891.089966,834.213562 1891.085693,833.971741 1891.088379,844.278381 
	C1891.091309,855.273071 1890.993164,866.269043 1891.143433,877.261658 
	C1891.187500,880.488342 1890.136719,881.699402 1886.866821,881.656433 
	C1875.712769,881.509644 1877.624512,882.346558 1877.597290,872.825867 
	C1877.511841,842.840637 1877.559570,812.854980 1877.578979,782.869507 
	C1877.580322,780.750977 1877.771240,778.632568 1877.867920,776.639221 
	C1892.294312,776.639221 1906.311646,775.833496 1920.189209,776.880066 
	C1932.523071,777.810120 1940.393188,785.617676 1943.453003,797.739380 
	C1946.662964,810.456238 1942.712524,821.628235 1932.266846,829.330078 
M1929.653198,813.761169 
	C1934.657349,799.022888 1927.308594,788.318726 1911.898804,788.003540 
	C1906.244507,787.887878 1900.584229,788.057068 1894.930054,787.937073 
	C1892.216675,787.879456 1891.019043,788.794678 1891.051636,791.658203 
	C1891.157715,800.973816 1891.135254,810.291748 1891.062378,819.607910 
	C1891.042969,822.084656 1891.871704,823.304016 1894.497559,823.251099 
	C1901.481323,823.110352 1908.486084,823.369751 1915.446655,822.917786 
	C1921.346069,822.534607 1926.342773,820.001343 1929.653198,813.761169 
z"/>
<path fill="#FCFDFC" opacity="1.000000" stroke="none" 
	d="
M1307.879150,855.000305 
	C1307.879517,862.832825 1307.781372,870.167358 1307.928589,877.497070 
	C1307.988403,880.483093 1306.952271,881.551819 1303.921509,881.677979 
	C1294.171631,882.083984 1294.173340,882.193665 1294.172363,872.285522 
	C1294.169312,842.121765 1294.344971,811.955994 1294.016113,781.795837 
	C1293.951050,775.836426 1296.826416,775.959290 1301.000610,775.990601 
	C1305.096069,776.021423 1308.287720,775.706543 1308.029053,781.751709 
	C1307.523682,793.562256 1307.996704,805.411560 1307.815430,817.240967 
	C1307.757812,821.006470 1308.732422,822.613770 1312.825928,822.558289 
	C1327.322021,822.361816 1341.823364,822.379211 1356.320068,822.547424 
	C1360.136841,822.591675 1361.148193,821.144775 1361.098389,817.544739 
	C1360.929810,805.381592 1361.186279,793.211792 1360.952393,781.050781 
	C1360.875732,777.057739 1362.172852,775.849915 1366.076050,775.994080 
	C1375.606934,776.346069 1374.582764,774.829041 1374.596069,784.585449 
	C1374.637329,814.915833 1374.639771,845.246399 1374.543823,875.576599 
	C1374.537598,877.516602 1373.747314,881.040161 1373.011353,881.124756 
	C1369.299805,881.551147 1365.469238,881.209106 1361.730469,880.738525 
	C1361.332153,880.688416 1361.072266,878.047729 1361.066162,876.607544 
	C1361.013916,864.275635 1360.912720,851.941406 1361.108276,839.612366 
	C1361.167236,835.898010 1360.004639,834.704773 1356.276367,834.749939 
	C1341.779785,834.925781 1327.277832,834.956482 1312.782715,834.730835 
	C1308.644043,834.666382 1307.635620,836.265198 1307.821655,840.004822 
	C1308.061279,844.825684 1307.879517,849.667603 1307.879150,855.000305 
z"/>
<path fill="#FCFDFC" opacity="1.000000" stroke="none" 
	d="
M2045.634521,873.494019 
	C2043.923584,868.740723 2042.644165,864.213989 2040.632080,860.040405 
	C2039.838623,858.394409 2037.434448,856.517517 2035.725830,856.480042 
	C2022.416992,856.188171 2009.096191,856.189148 1995.787354,856.479675 
	C1994.065430,856.517334 1991.571777,858.365051 1990.845581,860.000488 
	C1988.488892,865.307739 1986.532104,870.832275 1984.919800,876.417053 
	C1983.747681,880.477356 1981.664917,882.185364 1977.436768,881.677368 
	C1974.879761,881.370300 1972.255615,881.620972 1969.063965,881.620972 
	C1969.840576,879.174316 1970.267822,877.619080 1970.823120,876.110962 
	C1982.434448,844.570374 1994.140259,813.064026 2005.585571,781.463318 
	C2007.075195,777.350891 2008.977173,775.808899 2013.416138,775.949219 
	C2023.750366,776.275940 2023.796387,776.024231 2027.302124,785.515991 
	C2038.543701,815.951599 2049.756104,846.398071 2060.968994,876.844116 
	C2061.420410,878.069580 2061.765137,879.334351 2062.156982,880.572510 
	C2052.799316,883.836426 2048.699463,882.119141 2045.634521,873.494019 
M2019.494141,844.238342 
	C2024.436523,844.238342 2029.378906,844.238342 2035.213257,844.238342 
	C2028.717896,826.078918 2022.530151,808.779907 2016.342529,791.480896 
	C2015.906982,791.553711 2015.471436,791.626587 2015.035767,791.699402 
	C2008.914307,808.929321 2002.792725,826.159241 1996.369385,844.238831 
	C2004.583374,844.238831 2011.540161,844.238831 2019.494141,844.238342 
z"/>
<path fill="#FDFEFD" opacity="1.000000" stroke="none" 
	d="
M2141.381836,777.508545 
	C2157.170166,783.467041 2165.208740,797.695496 2162.488281,814.332092 
	C2159.908203,830.111572 2148.053223,840.231995 2131.487305,840.615356 
	C2124.162354,840.784912 2116.827637,840.800232 2109.503906,840.619873 
	C2105.980225,840.533142 2104.904541,841.876465 2104.948975,845.296692 
	C2105.102539,857.099426 2105.008057,868.905457 2105.008057,881.565186 
	C2101.142578,881.565186 2097.697266,881.770447 2094.304199,881.439636 
	C2093.291260,881.340942 2092.121582,879.889282 2091.583496,878.784729 
	C2091.121094,877.835999 2091.441895,876.498474 2091.441895,875.332825 
	C2091.439209,844.352905 2091.434570,813.372925 2091.455811,782.393005 
	C2091.457031,780.441284 2091.667725,778.489685 2091.843994,775.449097 
	C2108.519775,776.102234 2124.761719,776.738403 2141.381836,777.508545 
M2130.214111,787.865234 
	C2123.216553,787.859680 2116.217529,787.927185 2109.221680,787.812744 
	C2106.405029,787.766724 2104.925293,788.478943 2104.962158,791.692383 
	C2105.090576,802.853821 2105.070068,814.018188 2104.976074,825.180298 
	C2104.952148,828.015808 2106.082764,828.977966 2108.826904,828.929871 
	C2115.989014,828.804016 2123.167480,829.131348 2130.315186,828.777771 
	C2142.175537,828.191223 2148.989746,820.955750 2149.248291,809.220337 
	C2149.526855,796.574585 2143.314941,789.260254 2130.214111,787.865234 
z"/>
<path fill="#FDFEFD" opacity="1.000000" stroke="none" 
	d="
M1205.023926,871.944702 
	C1205.023926,875.229309 1205.023926,878.024353 1205.023926,881.557129 
	C1201.040405,881.557129 1197.540649,881.912537 1194.192505,881.355835 
	C1193.085449,881.171753 1191.647461,878.661072 1191.596069,877.171448 
	C1191.332275,869.522888 1191.469849,861.860413 1191.469604,854.202820 
	C1191.468872,830.397583 1191.469360,806.592407 1191.469360,782.787170 
	C1191.469360,780.823364 1191.469360,778.859558 1191.469360,776.524597 
	C1193.432007,776.337524 1194.856934,776.087341 1196.282349,776.083862 
	C1208.101685,776.054810 1219.922241,775.971252 1231.740234,776.097595 
	C1249.527832,776.287781 1262.458130,789.224121 1262.914795,807.101013 
	C1263.396118,825.947754 1251.492310,839.557861 1233.298096,840.518982 
	C1225.328491,840.940002 1217.319824,840.747375 1209.331909,840.629517 
	C1206.109985,840.581970 1204.920654,841.728455 1204.977417,844.987366 
	C1205.130859,853.807617 1205.026245,862.632263 1205.023926,871.944702 
M1222.481323,787.837097 
	C1217.983521,787.839233 1213.484253,787.913757 1208.988647,787.815918 
	C1206.384644,787.759338 1204.973145,788.468323 1204.999878,791.443665 
	C1205.101562,802.770386 1205.078735,814.098877 1205.007568,825.426086 
	C1204.991333,828.014526 1206.039673,828.960388 1208.579468,828.921936 
	C1216.073853,828.808472 1223.589966,829.169006 1231.061401,828.729004 
	C1242.124146,828.077698 1248.780640,820.955261 1249.244751,810.009033 
	C1249.854858,795.622131 1242.494019,787.954346 1227.968018,787.848267 
	C1226.468750,787.837341 1224.969482,787.840698 1222.481323,787.837097 
z"/>
<path fill="#FCFDFC" opacity="1.000000" stroke="none" 
	d="
M2349.764160,872.910217 
	C2349.447021,875.961609 2349.724121,880.424194 2348.701172,880.745483 
	C2345.364746,881.793213 2341.527832,881.591858 2337.946045,881.237000 
	C2337.183594,881.161438 2336.163574,878.416687 2336.147949,876.892456 
	C2336.008301,863.402405 2336.232422,849.906738 2335.946045,836.421265 
	C2335.879639,833.299072 2334.889648,829.831482 2333.266357,827.167847 
	C2324.080322,812.095825 2314.568115,797.222900 2305.180176,782.273865 
	C2304.136963,780.612061 2303.177002,778.897644 2301.567627,776.173950 
	C2306.847656,776.173950 2311.234863,775.927673 2315.561523,776.331848 
	C2316.777588,776.445435 2318.073975,778.310181 2318.894287,779.642212 
	C2325.706543,790.701843 2332.410156,801.828064 2339.160645,812.925659 
	C2340.185791,814.611206 2341.283447,816.252869 2342.780029,818.590027 
	C2344.103516,816.641724 2345.147949,815.235779 2346.055664,813.746582 
	C2352.644043,802.940002 2359.392578,792.224121 2365.675293,781.241943 
	C2367.967529,777.235046 2370.619385,775.438171 2375.182373,776.006104 
	C2377.769287,776.328247 2380.429199,776.064270 2384.012939,776.064270 
	C2382.727295,778.354126 2381.933594,779.916443 2381.006836,781.395386 
	C2371.368408,796.777039 2361.630127,812.097229 2352.140625,827.570068 
	C2350.753174,829.832336 2349.912598,832.792725 2349.862061,835.449890 
	C2349.628174,847.771179 2349.761475,860.099304 2349.764160,872.910217 
z"/>
<path fill="#FCFDFC" opacity="1.000000" stroke="none" 
	d="
M1532.260742,776.061157 
	C1551.206787,776.060364 1569.682983,776.058044 1588.159302,776.061340 
	C1594.964355,776.062500 1594.963135,776.068481 1594.939575,782.811584 
	C1594.933838,784.451355 1594.938721,786.091125 1594.938721,788.500488 
	C1587.854736,788.500488 1581.242798,788.490112 1574.630859,788.503418 
	C1567.966553,788.516785 1567.947144,788.527100 1567.945068,794.993103 
	C1567.937012,821.625549 1567.941895,848.258057 1567.941895,874.890503 
	C1567.941895,876.854919 1567.941895,878.819336 1567.941895,881.580261 
	C1563.980835,881.580261 1560.487305,881.933044 1557.142578,881.382629 
	C1556.022217,881.198303 1554.514893,878.724365 1554.487793,877.272583 
	C1554.269775,865.624939 1554.362915,853.971436 1554.362915,842.319763 
	C1554.362793,826.173828 1554.255371,810.026611 1554.440796,793.882812 
	C1554.488281,789.755554 1553.133423,788.244995 1549.001953,788.436829 
	C1543.354736,788.699158 1537.676514,788.299561 1532.030029,788.569580 
	C1528.210815,788.752258 1526.727783,787.272400 1527.347290,783.653564 
	C1527.869385,780.604614 1525.164185,775.565613 1532.260742,776.061157 
z"/>
<path fill="#9ABAA2" opacity="1.000000" stroke="none" 
	d="
M1594.194946,293.922424 
	C1628.930664,394.353729 1618.206055,487.634125 1551.177734,571.628662 
	C1518.263672,612.873962 1474.198120,634.885437 1421.826782,640.130005 
	C1382.578125,644.060425 1344.305664,640.328796 1307.827026,624.176270 
	C1271.268555,607.988403 1243.994019,581.284058 1222.196655,548.413269 
	C1196.009521,508.922974 1181.718750,465.459900 1178.592651,418.219910 
	C1174.326416,353.748718 1188.402954,294.179810 1225.416382,240.580582 
	C1252.986816,200.655716 1288.656982,171.539612 1336.336548,159.666794 
	C1389.926758,146.322144 1442.513062,149.102936 1492.604126,174.235214 
	C1527.473267,191.730118 1553.006104,219.362030 1572.938599,252.250549 
	C1580.933594,265.442444 1587.071167,279.759949 1594.194946,293.922424 
z"/>
<path fill="#9ABAA2" opacity="1.000000" stroke="none" 
	d="
M2473.339355,523.408936 
	C2494.778076,402.585693 2516.125488,282.185211 2537.472900,161.784729 
	C2537.957764,161.784119 2538.442627,161.783493 2538.927490,161.782867 
	C2562.331055,288.502991 2585.734619,415.223083 2609.225098,542.413696 
	C2562.556885,542.413696 2516.566895,542.413696 2470.085693,542.413696 
	C2471.193359,535.904602 2472.220459,529.868103 2473.339355,523.408936 
z"/>
<path fill="#9ABAA2" opacity="1.000000" stroke="none" 
	d="
M1644.943604,791.726868 
	C1674.442017,779.426575 1701.287720,797.270935 1701.339478,828.823242 
	C1701.374878,850.420471 1690.416870,865.498474 1671.782837,869.492798 
	C1646.283447,874.958679 1624.789795,858.323608 1623.815674,832.301086 
	C1623.166748,814.961914 1628.010864,800.390015 1644.943604,791.726868 
z"/>
<path fill="#9ABAA2" opacity="1.000000" stroke="none" 
	d="
M1476.498901,791.298706 
	C1487.744507,796.485046 1494.274170,805.092651 1497.014648,816.590881 
	C1499.212524,825.812805 1499.096558,835.111633 1496.393677,844.220398 
	C1491.095581,862.074158 1474.655762,872.076477 1454.283325,870.052185 
	C1436.247192,868.260071 1422.688843,854.160706 1421.047119,835.162903 
	C1419.792969,820.650330 1422.004517,806.924438 1433.875366,797.042603 
	C1446.527954,786.509766 1460.990356,785.484131 1476.498901,791.298706 
z"/>
<path fill="#9ABAA2" opacity="1.000000" stroke="none" 
	d="
M1929.469727,814.106934 
	C1926.342773,820.001343 1921.346069,822.534607 1915.446655,822.917786 
	C1908.486084,823.369751 1901.481323,823.110352 1894.497559,823.251099 
	C1891.871704,823.304016 1891.042969,822.084656 1891.062378,819.607910 
	C1891.135254,810.291748 1891.157715,800.973816 1891.051636,791.658203 
	C1891.019043,788.794678 1892.216675,787.879456 1894.930054,787.937073 
	C1900.584229,788.057068 1906.244507,787.887878 1911.898804,788.003540 
	C1927.308594,788.318726 1934.657349,799.022888 1929.469727,814.106934 
z"/>
<path fill="#9ABAA2" opacity="1.000000" stroke="none" 
	d="
M2018.995483,844.238586 
	C2011.540161,844.238831 2004.583374,844.238831 1996.369385,844.238831 
	C2002.792725,826.159241 2008.914307,808.929321 2015.035767,791.699402 
	C2015.471436,791.626587 2015.906982,791.553711 2016.342529,791.480896 
	C2022.530151,808.779907 2028.717896,826.078918 2035.213257,844.238342 
	C2029.378906,844.238342 2024.436523,844.238342 2018.995483,844.238586 
z"/>
<path fill="#9ABAA2" opacity="1.000000" stroke="none" 
	d="
M2130.674072,787.878662 
	C2143.314941,789.260254 2149.526855,796.574585 2149.248291,809.220337 
	C2148.989746,820.955750 2142.175537,828.191223 2130.315186,828.777771 
	C2123.167480,829.131348 2115.989014,828.804016 2108.826904,828.929871 
	C2106.082764,828.977966 2104.952148,828.015808 2104.976074,825.180298 
	C2105.070068,814.018188 2105.090576,802.853821 2104.962158,791.692383 
	C2104.925293,788.478943 2106.405029,787.766724 2109.221680,787.812744 
	C2116.217529,787.927185 2123.216553,787.859680 2130.674072,787.878662 
z"/>
<path fill="#9ABAA2" opacity="1.000000" stroke="none" 
	d="
M1222.975830,787.837280 
	C1224.969482,787.840698 1226.468750,787.837341 1227.968018,787.848267 
	C1242.494019,787.954346 1249.854858,795.622131 1249.244751,810.009033 
	C1248.780640,820.955261 1242.124146,828.077698 1231.061401,828.729004 
	C1223.589966,829.169006 1216.073853,828.808472 1208.579468,828.921936 
	C1206.039673,828.960388 1204.991333,828.014526 1205.007568,825.426086 
	C1205.078735,814.098877 1205.101562,802.770386 1204.999878,791.443665 
	C1204.973145,788.468323 1206.384644,787.759338 1208.988647,787.815918 
	C1213.484253,787.913757 1217.983521,787.839233 1222.975830,787.837280 
z"/>
</svg>